<svg width="446" height="262" xmlns="http://www.w3.org/2000/svg"><defs><radialGradient cx="93.457%" cy="0%" fx="93.457%" fy="0%" r="100%" gradientTransform="matrix(0 1 -.93042 0 .935 -.935)" id="a"><stop stop-color="#FFF" offset="0%"/><stop stop-color="#FFF" stop-opacity="0" offset="100%"/></radialGradient></defs><g fill="none" fill-rule="evenodd"><path fill="#FFF" d="M9 15h526v402H9z"/><g opacity=".4"><path d="M127.361 88.073a3.131 3.131 0 0 0-2.13.288l-9.233 4.865c-.627.33-1.122.87-1.331 1.537l-3.562 11.325c-.42 1.335.452 2.697 1.936 3.029l12.598 2.81a3.132 3.132 0 0 0 2.13-.288l9.233-4.865c.627-.33 1.121-.87 1.331-1.537l3.562-11.324c.42-1.335-.452-2.698-1.936-3.03l-12.598-2.81z" stroke="#CCCAFF"/><path d="M127.998 85.1a4.043 4.043 0 0 0-2.755.355l-11.905 6.21c-.808.422-1.443 1.115-1.709 1.975l-4.5 14.6c-.53 1.722.612 3.49 2.537 3.929l16.336 3.73c.963.22 1.946.069 2.755-.354l11.905-6.21c.809-.422 1.444-1.115 1.71-1.975l4.498-14.6c.53-1.721-.611-3.49-2.536-3.929l-16.336-3.73z" stroke="#CCCAFF"/><path d="M127.957 81.138a4.658 4.658 0 0 0-3.32.41l-14.267 7.654c-.97.52-1.725 1.383-2.031 2.462l-5.196 18.31c-.612 2.157.794 4.396 3.125 4.975l19.775 4.913c1.165.29 2.35.11 3.32-.41l14.267-7.654c.97-.52 1.725-1.383 2.031-2.462l5.196-18.31c.612-2.157-.794-4.396-3.125-4.975l-19.775-4.913zM28.361 141.073a3.131 3.131 0 0 0-2.13.288l-9.233 4.865c-.627.33-1.121.87-1.331 1.537l-3.562 11.325c-.42 1.335.452 2.697 1.936 3.029l12.598 2.81a3.131 3.131 0 0 0 2.13-.288l9.233-4.865c.627-.33 1.122-.87 1.331-1.537l3.562-11.324c.42-1.335-.452-2.698-1.936-3.03l-12.598-2.81z" stroke="#CCCAFF"/><path d="M9.17 138.146h38.725v31.505H9.169z"/><path d="M28.852 138.248a4.001 4.001 0 0 0-2.761.36l-11.93 6.312c-.81.429-1.447 1.133-1.713 2.007L7.94 161.765c-.53 1.75.613 3.545 2.542 3.993l16.37 3.791a4 4 0 0 0 2.762-.36l11.93-6.312c.81-.429 1.447-1.133 1.713-2.007l4.509-14.838c.53-1.749-.613-3.545-2.543-3.992l-16.37-3.792z" stroke="#CCCAFF"/><path d="M9.168 134.205H51.88v39.697H9.169z"/><path d="M28.782 134.346a4.606 4.606 0 0 0-3.327.417l-14.302 7.791c-.972.53-1.729 1.407-2.035 2.506L3.91 163.696c-.614 2.197.795 4.476 3.132 5.065l19.821 5a4.609 4.609 0 0 0 3.328-.416l14.301-7.792c.972-.53 1.729-1.407 2.036-2.505l5.207-18.637c.614-2.196-.795-4.475-3.131-5.065l-19.822-5zM226.361 35.073a3.131 3.131 0 0 0-2.13.288l-9.233 4.865c-.627.33-1.122.87-1.331 1.537l-3.562 11.325c-.42 1.335.452 2.697 1.936 3.029l12.598 2.81a3.131 3.131 0 0 0 2.13-.288l9.233-4.865c.627-.33 1.122-.87 1.331-1.537l3.562-11.324c.42-1.335-.452-2.698-1.936-3.03l-12.598-2.81z" stroke="#CCCAFF"/><path d="M225.998 32.1a4.043 4.043 0 0 0-2.755.355l-11.905 6.21c-.809.422-1.443 1.115-1.709 1.975l-4.5 14.6c-.53 1.722.612 3.49 2.537 3.929l16.336 3.73c.962.22 1.946.069 2.755-.354l11.905-6.21c.809-.422 1.444-1.115 1.709-1.975l4.499-14.6c.53-1.721-.611-3.49-2.536-3.929l-16.336-3.73z" stroke="#CCCAFF"/><path d="M226.957 29.138a4.66 4.66 0 0 0-3.32.41l-14.267 7.654c-.97.52-1.725 1.383-2.031 2.462l-5.196 18.31c-.612 2.157.794 4.396 3.125 4.975l19.775 4.913c1.165.29 2.35.11 3.32-.41l14.267-7.654c.97-.52 1.725-1.383 2.032-2.462l5.195-18.31c.612-2.157-.794-4.396-3.124-4.975l-19.776-4.913zM176.361 62.073a3.131 3.131 0 0 0-2.13.288l-9.233 4.865c-.627.33-1.122.87-1.331 1.537l-3.562 11.325c-.42 1.335.452 2.697 1.936 3.029l12.598 2.81a3.13 3.13 0 0 0 2.13-.288l9.233-4.865c.627-.33 1.122-.87 1.331-1.537l3.562-11.324c.42-1.335-.452-2.698-1.936-3.03l-12.598-2.81z" stroke="#CCCAFF"/><path d="M176.998 59.1a4.043 4.043 0 0 0-2.756.355l-11.904 6.21c-.809.422-1.443 1.115-1.71 1.975l-4.498 14.6c-.53 1.722.61 3.49 2.536 3.929l16.336 3.73c.963.22 1.946.069 2.755-.354l11.905-6.21c.809-.422 1.444-1.115 1.71-1.975l4.498-14.6c.53-1.721-.611-3.49-2.536-3.929l-16.336-3.73z" stroke="#CCCAFF"/><path d="M176.957 55.138a4.66 4.66 0 0 0-3.32.41l-14.267 7.654c-.97.52-1.725 1.383-2.03 2.462l-5.197 18.31c-.612 2.157.794 4.396 3.125 4.975l19.775 4.913c1.165.29 2.35.11 3.32-.41l14.267-7.654c.97-.52 1.725-1.383 2.032-2.462l5.195-18.31c.612-2.157-.794-4.396-3.124-4.975l-19.776-4.913zM77.361 115.073a3.131 3.131 0 0 0-2.13.288l-9.233 4.865c-.627.33-1.122.87-1.331 1.537l-3.562 11.325c-.42 1.335.452 2.697 1.936 3.029l12.598 2.81a3.13 3.13 0 0 0 2.13-.288L87 133.774c.628-.33 1.122-.87 1.332-1.537l3.562-11.324c.42-1.335-.452-2.698-1.936-3.03l-12.598-2.81z" stroke="#CCCAFF"/><path d="M77.998 112.1a4.043 4.043 0 0 0-2.755.355l-11.905 6.21c-.809.422-1.444 1.115-1.709 1.975l-4.5 14.6c-.53 1.722.612 3.49 2.537 3.929l16.336 3.73c.963.22 1.946.069 2.755-.354l11.905-6.21c.81-.422 1.444-1.115 1.709-1.975l4.5-14.6c.53-1.721-.612-3.49-2.537-3.929l-16.336-3.73z" stroke="#CCCAFF"/><path d="M77.957 108.138a4.66 4.66 0 0 0-3.32.41l-14.268 7.654c-.97.52-1.724 1.383-2.03 2.462l-5.196 18.31c-.612 2.157.794 4.396 3.125 4.975l19.775 4.913c1.165.29 2.35.11 3.32-.41l14.267-7.654c.97-.52 1.725-1.383 2.031-2.462l5.196-18.31c.612-2.157-.794-4.396-3.125-4.975l-19.775-4.913z" stroke="#CCCAFF"/><path d="M259.186 15.104h31.445v17.643h-31.445z"/><path d="M275.782 7.59a3.077 3.077 0 0 0-2.161.303l-9.365 5.115c-.636.347-1.138.914-1.35 1.616l-3.613 11.907c-.426 1.404.458 2.837 1.964 3.185l12.777 2.954a3.078 3.078 0 0 0 2.162-.302l9.365-5.116c.636-.347 1.138-.914 1.35-1.616l3.613-11.906c.425-1.404-.458-2.837-1.964-3.185L275.782 7.59z" stroke="#CCCAFF"/><path d="M254.362 16.1h39.531V36.83h-39.531z"/><path d="M275.114 5.393a3.893 3.893 0 0 0-2.723.36l-11.765 6.319c-.8.429-1.427 1.133-1.69 2.008l-4.446 14.855c-.524 1.75.604 3.549 2.507 3.996l16.144 3.796c.952.223 1.924.069 2.723-.36l11.765-6.32c.8-.429 1.427-1.133 1.69-2.009l4.446-14.853c.524-1.75-.604-3.55-2.507-3.997l-16.144-3.795z" stroke="#CCCAFF"/><path d="M250.189 16.101h48.686v24.624h-48.686z"/><path d="M275.503 1.876a4.787 4.787 0 0 0-3.368.409l-14.471 7.652c-.984.52-1.75 1.382-2.06 2.461l-5.27 18.304c-.62 2.157.806 4.395 3.17 4.974l20.057 4.911a4.789 4.789 0 0 0 3.367-.409l14.472-7.652c.983-.52 1.75-1.383 2.06-2.461l5.27-18.304c.62-2.157-.806-4.396-3.17-4.975l-20.057-4.91zM220.361 237.074a3.13 3.13 0 0 0-2.13.287l-9.233 4.865c-.627.33-1.122.87-1.331 1.537l-3.562 11.325c-.42 1.335.452 2.698 1.936 3.028l12.598 2.81a3.132 3.132 0 0 0 2.13-.287l9.233-4.865c.627-.33 1.121-.87 1.331-1.537l3.562-11.325c.42-1.334-.452-2.698-1.936-3.029l-12.598-2.81z" stroke="#CCCAFF"/><path d="M219.998 234.1a4.04 4.04 0 0 0-2.755.355l-11.905 6.21c-.808.422-1.443 1.115-1.709 1.975l-4.5 14.6c-.53 1.722.612 3.489 2.537 3.929l16.336 3.73c.963.22 1.946.069 2.755-.354l11.905-6.21c.809-.422 1.444-1.115 1.71-1.975l4.498-14.6c.53-1.721-.611-3.489-2.536-3.929l-16.336-3.73z" stroke="#CCCAFF"/><path d="M219.957 230.138a4.654 4.654 0 0 0-3.32.41l-14.267 7.654c-.97.52-1.725 1.383-2.031 2.462l-5.196 18.31c-.612 2.157.794 4.397 3.125 4.976l19.775 4.912a4.663 4.663 0 0 0 3.32-.41l14.267-7.654c.97-.52 1.725-1.383 2.031-2.462l5.196-18.31c.612-2.157-.794-4.397-3.125-4.975l-19.775-4.913zM418.361 132.073a3.131 3.131 0 0 0-2.13.288l-9.232 4.865c-.628.33-1.122.87-1.332 1.537l-3.561 11.324c-.42 1.335.45 2.699 1.936 3.03l12.597 2.81a3.131 3.131 0 0 0 2.13-.288l9.233-4.865c.627-.33 1.122-.87 1.331-1.537l3.562-11.324c.42-1.335-.452-2.698-1.936-3.03l-12.598-2.81z" stroke="#CCCAFF"/><path d="M417.998 128.1a4.04 4.04 0 0 0-2.755.355l-11.905 6.21c-.808.422-1.443 1.115-1.709 1.975l-4.5 14.6c-.53 1.721.612 3.489 2.537 3.929l16.336 3.73a4.04 4.04 0 0 0 2.755-.354l11.905-6.21c.81-.423 1.444-1.115 1.709-1.975l4.5-14.6c.53-1.721-.612-3.489-2.537-3.929l-16.336-3.73z" stroke="#CCCAFF"/><path d="M417.957 124.138a4.66 4.66 0 0 0-3.32.41l-14.268 7.654c-.97.52-1.724 1.383-2.03 2.462l-5.196 18.31c-.612 2.157.794 4.396 3.125 4.975l19.775 4.913c1.165.289 2.35.111 3.32-.41l14.267-7.654c.97-.52 1.725-1.383 2.031-2.462l5.195-18.31c.613-2.157-.793-4.396-3.123-4.976l-19.776-4.912zM319.362 185.074a3.13 3.13 0 0 0-2.131.287l-9.232 4.865c-.628.33-1.122.87-1.332 1.537l-3.561 11.325c-.42 1.335.45 2.698 1.936 3.028l12.596 2.81a3.132 3.132 0 0 0 2.131-.287l9.233-4.865c.627-.33 1.122-.87 1.332-1.537l3.56-11.325c.42-1.334-.45-2.698-1.936-3.029l-12.596-2.81z" stroke="#CCCAFF"/><path d="M318.998 181.1a4.04 4.04 0 0 0-2.755.355l-11.905 6.21c-.809.422-1.443 1.115-1.71 1.975l-4.498 14.6c-.53 1.722.61 3.489 2.536 3.929l16.336 3.73c.963.22 1.946.069 2.755-.354l11.905-6.21c.809-.423 1.444-1.115 1.71-1.975l4.498-14.6c.53-1.721-.61-3.489-2.536-3.929l-16.336-3.73z" stroke="#CCCAFF"/><path d="M318.957 177.138a4.655 4.655 0 0 0-3.32.41l-14.267 7.654c-.97.52-1.725 1.383-2.031 2.462l-5.196 18.31c-.612 2.157.794 4.397 3.125 4.976l19.775 4.912a4.663 4.663 0 0 0 3.32-.41l14.267-7.654c.97-.52 1.725-1.383 2.031-2.462l5.195-18.31c.613-2.157-.793-4.397-3.123-4.975l-19.776-4.913zM270.361 211.074a3.13 3.13 0 0 0-2.13.287l-9.233 4.865c-.627.33-1.122.87-1.331 1.537l-3.562 11.325c-.42 1.335.452 2.698 1.936 3.028l12.598 2.81a3.131 3.131 0 0 0 2.13-.287l9.232-4.865c.628-.33 1.122-.87 1.332-1.537l3.562-11.325c.42-1.334-.452-2.698-1.936-3.029l-12.598-2.81z" stroke="#CCCAFF"/><path d="M269.998 207.1a4.04 4.04 0 0 0-2.756.355l-11.904 6.21c-.809.422-1.443 1.115-1.71 1.975l-4.498 14.6c-.53 1.722.61 3.489 2.536 3.929l16.336 3.73a4.04 4.04 0 0 0 2.755-.354l11.905-6.21c.81-.423 1.444-1.115 1.71-1.975l4.498-14.6c.53-1.721-.61-3.489-2.536-3.929l-16.336-3.73z" stroke="#CCCAFF"/><path d="M269.957 203.138a4.655 4.655 0 0 0-3.32.41l-14.267 7.654c-.97.52-1.725 1.383-2.03 2.462l-5.197 18.31c-.612 2.157.794 4.397 3.125 4.976l19.775 4.912a4.663 4.663 0 0 0 3.32-.41l14.267-7.654c.97-.52 1.725-1.383 2.032-2.462l5.195-18.31c.612-2.157-.794-4.397-3.124-4.975l-19.776-4.913zM467.957 98.138a4.66 4.66 0 0 0-3.32.41l-14.268 7.654c-.97.52-1.724 1.383-2.03 2.462l-5.196 18.31c-.612 2.157.794 4.396 3.125 4.975l19.775 4.913a4.66 4.66 0 0 0 3.32-.41l14.267-7.654c.97-.52 1.725-1.383 2.031-2.462l5.196-18.31c.612-2.157-.794-4.396-3.125-4.976l-19.775-4.912zM170.998 260.1a4.04 4.04 0 0 0-2.755.355l-11.905 6.21c-.809.422-1.444 1.115-1.709 1.975l-4.5 14.6c-.53 1.722.612 3.489 2.537 3.929l16.336 3.73c.963.22 1.946.069 2.755-.354l11.905-6.21c.81-.422 1.444-1.115 1.709-1.975l4.5-14.6c.53-1.721-.612-3.489-2.537-3.929l-16.336-3.73z" stroke="#CCCAFF"/><path d="M170.957 256.138a4.655 4.655 0 0 0-3.32.41l-14.268 7.654c-.97.52-1.724 1.383-2.03 2.462l-5.196 18.31c-.612 2.157.794 4.397 3.125 4.976l19.775 4.912a4.663 4.663 0 0 0 3.32-.41l14.267-7.654c.97-.52 1.725-1.383 2.031-2.462l5.196-18.31c.612-2.157-.794-4.397-3.125-4.975l-19.775-4.913zM369.361 158.074a3.13 3.13 0 0 0-2.13.287l-9.233 4.865c-.627.33-1.121.87-1.331 1.537l-3.562 11.325c-.42 1.335.452 2.698 1.936 3.028l12.597 2.81a3.132 3.132 0 0 0 2.131-.287l9.233-4.865c.627-.33 1.122-.87 1.331-1.537l3.562-11.325c.42-1.334-.452-2.698-1.937-3.029l-12.597-2.81z" stroke="#CCCAFF"/><path d="M368.998 154.1a4.04 4.04 0 0 0-2.755.355l-11.905 6.21c-.809.422-1.443 1.115-1.709 1.975l-4.5 14.6c-.53 1.722.612 3.489 2.537 3.929l16.336 3.73a4.04 4.04 0 0 0 2.755-.354l11.905-6.21c.809-.423 1.444-1.115 1.709-1.975l4.5-14.6c.53-1.721-.612-3.489-2.537-3.929l-16.336-3.73z" stroke="#CCCAFF"/><path d="M368.957 151.138a4.66 4.66 0 0 0-3.32.41l-14.268 7.654c-.97.52-1.724 1.383-2.03 2.462l-5.196 18.31c-.612 2.157.794 4.396 3.125 4.975l19.775 4.913c1.165.289 2.35.111 3.32-.41l14.267-7.654c.97-.52 1.725-1.383 2.031-2.462l5.195-18.31c.613-2.157-.793-4.396-3.123-4.976l-19.776-4.912z" stroke="#CCCAFF"/><path d="M64.323 17.1h31.444v21.888H64.323z"/><path d="M80.919 14.687a3.172 3.172 0 0 0-2.161.292l-9.365 4.942c-.637.335-1.138.883-1.351 1.56L64.43 32.984c-.426 1.356.458 2.74 1.963 3.077l12.778 2.854a3.173 3.173 0 0 0 2.161-.292l9.365-4.942c.637-.335 1.138-.883 1.35-1.56l3.613-11.502c.426-1.356-.458-2.74-1.963-3.077l-12.778-2.854z" stroke="#CCCAFF"/><path d="M60.112 16.1h39.532v25.605H60.112z"/><path d="M80.864 10.249a3.891 3.891 0 0 0-2.723.36l-11.765 6.323c-.8.43-1.427 1.135-1.69 2.01L60.24 33.806c-.524 1.752.604 3.551 2.507 4l16.144 3.797a3.89 3.89 0 0 0 2.723-.36L93.38 34.92c.8-.43 1.427-1.135 1.689-2.01l4.446-14.864c.524-1.752-.604-3.551-2.506-4L80.864 10.25z" stroke="#CCCAFF"/><path d="M56.324 16.102h48.3V45.96h-48.3z"/><path d="M81.437 6.64a4.66 4.66 0 0 0-3.34.415L63.74 14.799c-.976.527-1.736 1.4-2.044 2.491l-5.228 18.524c-.616 2.183.799 4.449 3.144 5.035l19.898 4.97a4.667 4.667 0 0 0 3.341-.414l14.357-7.745c.975-.527 1.735-1.4 2.043-2.49l5.228-18.525c.616-2.183-.799-4.449-3.144-5.034L81.437 6.64zM32.361 41.073a3.131 3.131 0 0 0-2.13.288l-9.233 4.865c-.627.33-1.122.87-1.331 1.537l-3.562 11.324c-.42 1.335.452 2.699 1.936 3.03l12.598 2.81a3.13 3.13 0 0 0 2.13-.288L42 59.774c.628-.33 1.122-.87 1.332-1.537l3.562-11.324c.42-1.335-.452-2.698-1.936-3.03l-12.598-2.81z" stroke="#CCCAFF"/><path d="M31.998 37.1a4.042 4.042 0 0 0-2.755.355l-11.905 6.21c-.809.422-1.444 1.115-1.709 1.975l-4.5 14.6c-.53 1.722.612 3.489 2.537 3.929l16.336 3.73c.963.22 1.946.069 2.755-.354l11.905-6.21c.81-.423 1.444-1.115 1.709-1.975l4.5-14.6c.53-1.722-.612-3.49-2.537-3.929l-16.336-3.73z" stroke="#CCCAFF"/><path d="M9.168 32.261h45.778v39.697H9.168z"/><path d="M31.898 32.402a4.583 4.583 0 0 0-3.32.417l-14.27 7.791c-.97.53-1.726 1.408-2.032 2.506L7.08 61.752c-.612 2.197.793 4.476 3.125 5.066l19.779 5a4.59 4.59 0 0 0 3.32-.417l14.27-7.791c.97-.53 1.726-1.408 2.032-2.506l5.196-18.637c.613-2.196-.794-4.476-3.125-5.065l-19.779-5zM174.361 163.073a3.133 3.133 0 0 0-2.13.288l-9.233 4.865c-.627.33-1.122.87-1.331 1.537l-3.562 11.325c-.42 1.334.452 2.697 1.936 3.029l12.598 2.81a3.134 3.134 0 0 0 2.13-.288l9.233-4.865c.627-.33 1.121-.87 1.331-1.537l3.562-11.325c.42-1.334-.452-2.697-1.936-3.029l-12.598-2.81z" stroke="#CCCAFF"/><path d="M174.998 160.1a4.04 4.04 0 0 0-2.755.355l-11.905 6.21c-.808.422-1.443 1.115-1.709 1.975l-4.5 14.6c-.53 1.722.612 3.489 2.537 3.929l16.336 3.73c.963.22 1.946.069 2.755-.353l11.905-6.211c.809-.422 1.444-1.115 1.71-1.975l4.498-14.6c.53-1.721-.611-3.489-2.536-3.929l-16.336-3.73z" stroke="#CCCAFF"/><path d="M174.957 156.138a4.658 4.658 0 0 0-3.32.41l-14.267 7.654c-.97.52-1.725 1.383-2.031 2.462l-5.196 18.31c-.612 2.157.794 4.396 3.125 4.976l19.775 4.912a4.66 4.66 0 0 0 3.32-.41l14.267-7.654c.97-.52 1.725-1.383 2.031-2.462l5.196-18.31c.612-2.157-.794-4.396-3.125-4.976l-19.775-4.912zM372.361 57.073a3.133 3.133 0 0 0-2.13.288l-9.233 4.865c-.627.33-1.121.87-1.331 1.537l-3.562 11.325c-.42 1.334.452 2.698 1.936 3.028l12.598 2.81a3.131 3.131 0 0 0 2.13-.287l9.233-4.865c.627-.33 1.122-.87 1.331-1.537l3.562-11.325c.42-1.334-.452-2.697-1.936-3.029l-12.598-2.81z" stroke="#CCCAFF"/><path d="M371.998 53.1a4.042 4.042 0 0 0-2.755.355l-11.905 6.21c-.809.422-1.443 1.115-1.709 1.975l-4.5 14.6c-.53 1.722.612 3.49 2.537 3.929l16.336 3.73c.963.22 1.946.069 2.755-.354l11.905-6.21c.809-.423 1.444-1.115 1.709-1.975l4.5-14.6c.53-1.722-.612-3.49-2.537-3.929l-16.336-3.73z" stroke="#CCCAFF"/><path d="M371.957 49.138a4.66 4.66 0 0 0-3.32.41l-14.268 7.654c-.97.52-1.724 1.383-2.03 2.462l-5.196 18.31c-.612 2.157.794 4.396 3.125 4.975l19.775 4.913c1.165.29 2.35.11 3.32-.41l14.267-7.654c.97-.52 1.725-1.383 2.031-2.462l5.196-18.31c.612-2.157-.794-4.396-3.125-4.975l-19.775-4.913zM75.361 216.073a3.133 3.133 0 0 0-2.13.288l-9.233 4.865c-.627.33-1.121.87-1.331 1.537l-3.562 11.325c-.42 1.334.452 2.697 1.936 3.029l12.598 2.81a3.133 3.133 0 0 0 2.13-.288l9.233-4.865c.627-.33 1.122-.87 1.331-1.537l3.562-11.325c.42-1.334-.452-2.697-1.936-3.029l-12.598-2.81z" stroke="#CCCAFF"/><path d="M75.998 213.1a4.04 4.04 0 0 0-2.755.355l-11.905 6.21c-.809.422-1.444 1.115-1.709 1.975l-4.5 14.6c-.53 1.722.612 3.489 2.537 3.929l16.336 3.73c.963.22 1.946.069 2.755-.353l11.905-6.211c.81-.422 1.444-1.115 1.709-1.975l4.5-14.6c.53-1.721-.612-3.489-2.537-3.929l-16.336-3.73z" stroke="#CCCAFF"/><path d="M75.957 209.138a4.66 4.66 0 0 0-3.32.41l-14.267 7.654c-.97.52-1.725 1.383-2.03 2.462l-5.197 18.31c-.612 2.157.794 4.396 3.125 4.976l19.775 4.912a4.66 4.66 0 0 0 3.32-.41l14.267-7.654c.97-.52 1.725-1.383 2.031-2.462l5.196-18.31c.612-2.157-.794-4.396-3.124-4.976l-19.776-4.912zM273.361 110.073a3.133 3.133 0 0 0-2.13.288l-9.233 4.865c-.627.33-1.122.87-1.331 1.537l-3.562 11.325c-.42 1.334.452 2.698 1.936 3.028l12.598 2.81a3.131 3.131 0 0 0 2.13-.287l9.233-4.865c.627-.33 1.122-.87 1.332-1.537l3.56-11.325c.42-1.334-.45-2.697-1.936-3.029l-12.597-2.81z" stroke="#CCCAFF"/><path d="M272.998 107.1a4.042 4.042 0 0 0-2.755.355l-11.905 6.21c-.809.422-1.443 1.115-1.709 1.975l-4.5 14.6c-.53 1.722.612 3.49 2.537 3.929l16.336 3.73c.962.22 1.946.069 2.755-.354l11.905-6.21c.809-.423 1.444-1.115 1.709-1.975l4.499-14.6c.53-1.722-.611-3.49-2.536-3.929l-16.336-3.73z" stroke="#CCCAFF"/><path d="M272.957 103.138a4.66 4.66 0 0 0-3.32.41l-14.267 7.654c-.97.52-1.725 1.383-2.031 2.462l-5.196 18.31c-.612 2.157.794 4.396 3.125 4.975l19.775 4.913c1.165.29 2.35.11 3.32-.41l14.267-7.654c.97-.52 1.725-1.383 2.031-2.462l5.195-18.31c.613-2.157-.793-4.396-3.123-4.975l-19.776-4.913zM223.361 136.073a3.133 3.133 0 0 0-2.13.288l-9.233 4.865c-.627.33-1.122.87-1.331 1.537l-3.562 11.325c-.42 1.334.452 2.697 1.936 3.029l12.598 2.81a3.133 3.133 0 0 0 2.13-.288l9.233-4.865c.627-.33 1.122-.87 1.331-1.537l3.562-11.325c.42-1.334-.452-2.697-1.936-3.029l-12.598-2.81z" stroke="#CCCAFF"/><path d="M223.998 133.1a4.043 4.043 0 0 0-2.756.355l-11.904 6.21c-.809.422-1.443 1.115-1.71 1.975l-4.498 14.6c-.53 1.721.61 3.49 2.536 3.929l16.336 3.73c.963.22 1.946.069 2.755-.354l11.905-6.21c.809-.423 1.444-1.115 1.71-1.975l4.498-14.6c.53-1.722-.611-3.49-2.536-3.929l-16.336-3.73z" stroke="#CCCAFF"/><path d="M223.957 130.138a4.66 4.66 0 0 0-3.32.41l-14.267 7.654c-.97.52-1.725 1.383-2.03 2.462l-5.197 18.309c-.612 2.158.794 4.397 3.125 4.977l19.775 4.911c1.165.29 2.35.112 3.32-.408l14.267-7.655c.97-.52 1.725-1.383 2.032-2.462l5.195-18.31c.612-2.157-.794-4.396-3.124-4.975l-19.776-4.913zM421.362 31.073a3.134 3.134 0 0 0-2.131.288l-9.233 4.865c-.627.33-1.121.87-1.331 1.537l-3.562 11.325c-.42 1.334.452 2.698 1.936 3.028l12.598 2.81a3.131 3.131 0 0 0 2.13-.287l9.233-4.865c.627-.33 1.122-.87 1.331-1.537l3.561-11.325c.42-1.334-.45-2.697-1.935-3.029l-12.597-2.81z" stroke="#CCCAFF"/><path d="M420.998 27.1a4.042 4.042 0 0 0-2.755.355l-11.905 6.21c-.808.422-1.443 1.115-1.709 1.975l-4.5 14.6c-.53 1.722.612 3.49 2.537 3.929l16.336 3.73c.963.22 1.946.069 2.755-.354l11.905-6.21c.81-.423 1.444-1.115 1.71-1.975l4.498-14.6c.53-1.722-.61-3.49-2.536-3.929l-16.336-3.73z" stroke="#CCCAFF"/><path d="M420.957 23.138a4.66 4.66 0 0 0-3.32.41l-14.268 7.654c-.97.52-1.724 1.383-2.03 2.462l-5.196 18.31c-.612 2.157.794 4.396 3.125 4.975l19.775 4.913c1.165.29 2.35.11 3.32-.41l14.267-7.654c.97-.52 1.725-1.383 2.031-2.462l5.196-18.31c.612-2.157-.794-4.396-3.125-4.975l-19.775-4.913z" stroke="#CCCAFF"/><path d="M9.166 241.344h30.791v24.534H9.167z"/><path d="M25.395 241.42a3.043 3.043 0 0 0-2.12.293l-9.183 4.974c-.624.337-1.116.889-1.325 1.57l-3.543 11.577c-.417 1.365.45 2.758 1.926 3.097l12.531 2.872c.739.17 1.496.044 2.12-.294l9.184-4.973c.624-.338 1.116-.889 1.325-1.571l3.542-11.577c.418-1.364-.449-2.757-1.925-3.096l-12.532-2.872z" stroke="#CCCAFF"/><path d="M9.17 239.09h35.657v30.863H9.17z"/><path d="M25.721 239.19a4.099 4.099 0 0 0-2.77.353l-11.97 6.183c-.813.42-1.451 1.11-1.718 1.966l-4.525 14.536c-.533 1.713.615 3.473 2.55 3.91l16.426 3.715a4.1 4.1 0 0 0 2.77-.352l11.97-6.184c.814-.42 1.452-1.11 1.719-1.966l4.523-14.536c.534-1.713-.614-3.473-2.55-3.91l-16.425-3.715z" stroke="#CCCAFF"/><path d="M9.169 235.15h39.643v39.696H9.169z"/><path d="M25.658 235.29a4.629 4.629 0 0 0-3.336.417l-14.337 7.791c-.974.53-1.733 1.407-2.04 2.506L.723 264.64c-.615 2.197.797 4.476 3.14 5.066l19.87 5a4.629 4.629 0 0 0 3.336-.417l14.336-7.792c.975-.53 1.734-1.407 2.042-2.506l5.22-18.636c.615-2.196-.798-4.476-3.14-5.065l-19.87-5zM124.361 189.073a3.133 3.133 0 0 0-2.13.288l-9.233 4.865c-.627.33-1.122.87-1.331 1.537l-3.562 11.325c-.42 1.334.452 2.697 1.936 3.029l12.598 2.81a3.132 3.132 0 0 0 2.13-.288l9.232-4.865c.628-.33 1.122-.87 1.332-1.537l3.562-11.325c.42-1.334-.452-2.697-1.936-3.029l-12.598-2.81z" stroke="#CCCAFF"/><path d="M124.998 186.1a4.04 4.04 0 0 0-2.755.355l-11.905 6.21c-.809.422-1.444 1.115-1.709 1.975l-4.5 14.6c-.53 1.722.612 3.489 2.537 3.929l16.336 3.73c.963.22 1.946.069 2.755-.353l11.905-6.211c.81-.422 1.444-1.115 1.709-1.975l4.5-14.6c.53-1.721-.612-3.489-2.537-3.929l-16.336-3.73z" stroke="#CCCAFF"/><path d="M124.957 182.138a4.66 4.66 0 0 0-3.32.41l-14.268 7.654c-.97.52-1.724 1.383-2.03 2.462l-5.196 18.31c-.612 2.157.794 4.396 3.125 4.976l19.775 4.912a4.66 4.66 0 0 0 3.32-.41l14.267-7.654c.97-.52 1.725-1.383 2.031-2.462l5.196-18.31c.612-2.157-.794-4.396-3.125-4.976l-19.775-4.912zM322.361 84.073a3.133 3.133 0 0 0-2.13.288l-9.233 4.865c-.627.33-1.121.87-1.331 1.537l-3.562 11.325c-.42 1.334.452 2.698 1.936 3.028l12.597 2.81a3.132 3.132 0 0 0 2.131-.287l9.233-4.865c.627-.33 1.122-.87 1.331-1.537l3.562-11.325c.42-1.334-.452-2.697-1.937-3.029l-12.597-2.81z" stroke="#CCCAFF"/><path d="M321.998 80.1a4.042 4.042 0 0 0-2.755.355l-11.905 6.21c-.809.422-1.443 1.115-1.709 1.975l-4.5 14.6c-.53 1.722.612 3.49 2.537 3.929l16.336 3.73c.963.22 1.946.069 2.755-.354l11.905-6.21c.809-.423 1.444-1.115 1.709-1.975l4.5-14.6c.53-1.722-.612-3.49-2.537-3.929l-16.336-3.73z" stroke="#CCCAFF"/><path d="M321.957 76.138a4.66 4.66 0 0 0-3.32.41l-14.268 7.654c-.97.52-1.724 1.383-2.03 2.462l-5.196 18.31c-.612 2.157.794 4.396 3.125 4.975l19.775 4.913c1.165.29 2.35.11 3.32-.41l14.267-7.654c.97-.52 1.725-1.383 2.031-2.462l5.195-18.31c.613-2.157-.793-4.396-3.123-4.975l-19.776-4.913zM464.998 203.1a4.042 4.042 0 0 0-2.755.355l-11.905 6.21c-.808.423-1.444 1.115-1.709 1.975l-4.5 14.6c-.529 1.722.612 3.489 2.537 3.929l16.336 3.73c.963.22 1.946.069 2.755-.354l11.905-6.21c.81-.422 1.444-1.115 1.71-1.975l4.498-14.6c.53-1.721-.61-3.49-2.536-3.929l-16.336-3.73z" stroke="#CCCAFF"/><path d="M464.957 199.138a4.656 4.656 0 0 0-3.32.41l-14.268 7.654c-.97.52-1.724 1.383-2.03 2.462l-5.196 18.31c-.612 2.157.794 4.396 3.125 4.976l19.775 4.912c1.165.29 2.35.11 3.32-.41l14.267-7.654c.97-.52 1.725-1.383 2.031-2.462l5.195-18.31c.613-2.157-.793-4.397-3.123-4.975l-19.776-4.913zM365.362 258.074a3.131 3.131 0 0 0-2.131.287l-9.232 4.865c-.628.33-1.122.87-1.332 1.537l-3.561 11.325c-.42 1.335.45 2.698 1.936 3.028l12.596 2.81a3.132 3.132 0 0 0 2.131-.287l9.233-4.865c.627-.33 1.122-.87 1.332-1.537l3.56-11.324c.42-1.335-.45-2.698-1.936-3.03l-12.596-2.81z" stroke="#CCCAFF"/><path d="M365.998 256.1a4.041 4.041 0 0 0-2.755.355l-11.905 6.21c-.809.423-1.443 1.115-1.71 1.975l-4.498 14.6c-.53 1.722.61 3.489 2.536 3.929l16.336 3.73c.963.22 1.946.069 2.755-.354l11.905-6.21c.809-.422 1.444-1.115 1.71-1.975l4.498-14.6c.53-1.721-.61-3.49-2.536-3.929l-16.336-3.73z" stroke="#CCCAFF"/><path d="M365.957 252.138a4.655 4.655 0 0 0-3.32.41l-14.267 7.654c-.97.52-1.725 1.383-2.031 2.462l-5.196 18.31c-.612 2.157.794 4.396 3.125 4.976l19.775 4.912c1.166.29 2.35.11 3.32-.41l14.267-7.654c.97-.52 1.725-1.383 2.031-2.462l5.195-18.31c.613-2.157-.793-4.397-3.123-4.975l-19.776-4.913zM415.361 232.074a3.131 3.131 0 0 0-2.13.287l-9.233 4.865c-.627.33-1.121.87-1.331 1.537l-3.562 11.325c-.42 1.335.452 2.698 1.936 3.028l12.597 2.81a3.132 3.132 0 0 0 2.131-.287l9.233-4.865c.627-.33 1.122-.87 1.331-1.537l3.562-11.324c.42-1.335-.452-2.698-1.937-3.03l-12.597-2.81z" stroke="#CCCAFF"/><path d="M414.998 229.1a4.042 4.042 0 0 0-2.755.355l-11.905 6.21c-.809.423-1.443 1.115-1.709 1.975l-4.5 14.6c-.53 1.722.612 3.489 2.537 3.929l16.336 3.73c.963.22 1.946.069 2.755-.354l11.905-6.21c.809-.422 1.444-1.115 1.709-1.975l4.5-14.6c.53-1.721-.612-3.49-2.537-3.929l-16.336-3.73z" stroke="#CCCAFF"/><path d="M414.957 225.138a4.656 4.656 0 0 0-3.32.41l-14.268 7.654c-.97.52-1.724 1.383-2.03 2.462l-5.196 18.31c-.612 2.157.794 4.396 3.125 4.976l19.775 4.912c1.165.29 2.35.11 3.32-.41l14.267-7.654c.97-.52 1.725-1.383 2.031-2.462l5.195-18.31c.613-2.157-.793-4.397-3.123-4.975l-19.776-4.913zM174.361 113.073a3.133 3.133 0 0 0-2.13.288l-9.233 4.865c-.627.33-1.122.87-1.331 1.537l-3.562 11.325c-.42 1.334.452 2.697 1.936 3.029l12.598 2.81a3.133 3.133 0 0 0 2.13-.288l9.233-4.865c.627-.33 1.122-.87 1.331-1.537l3.562-11.325c.42-1.334-.452-2.697-1.936-3.029l-12.598-2.81z" stroke="#CCCAFF"/><path d="M174.998 109.1a4.042 4.042 0 0 0-2.755.355l-11.904 6.21c-.81.422-1.444 1.115-1.71 1.975l-4.5 14.6c-.53 1.721.612 3.489 2.537 3.929l16.336 3.73c.963.22 1.946.068 2.756-.354l11.904-6.21c.809-.423 1.444-1.115 1.709-1.975l4.499-14.6c.53-1.722-.611-3.49-2.536-3.929l-16.336-3.73z" stroke="#CCCAFF"/><path d="M174.957 105.138a4.66 4.66 0 0 0-3.32.41l-14.267 7.654c-.97.52-1.725 1.383-2.031 2.462l-5.196 18.31c-.612 2.157.794 4.396 3.125 4.975l19.775 4.913c1.165.289 2.35.111 3.32-.41l14.267-7.654c.97-.52 1.725-1.383 2.032-2.462l5.195-18.31c.612-2.157-.794-4.396-3.124-4.976l-19.776-4.912z" stroke="#CCCAFF"/><path d="M356 16.099h30.839v14.634H356z"/><path d="M372.277 6.844a3.106 3.106 0 0 0-2.12.287l-9.184 4.857c-.624.33-1.116.869-1.325 1.535l-3.542 11.307c-.418 1.333.449 2.694 1.925 3.024l12.532 2.806a3.108 3.108 0 0 0 2.12-.287l9.184-4.858c.623-.33 1.116-.868 1.324-1.534l3.543-11.307c.417-1.333-.449-2.694-1.926-3.025l-12.531-2.805z" stroke="#CCCAFF"/><path d="M351.18 16.101h39.53V34.8h-39.53z"/><path d="M371.932 3.138a3.868 3.868 0 0 0-2.723.363l-11.766 6.364c-.8.432-1.426 1.142-1.69 2.023l-4.445 14.961c-.524 1.763.604 3.574 2.506 4.025l16.145 3.823c.951.225 1.923.07 2.723-.363l11.765-6.364c.8-.433 1.427-1.142 1.69-2.024l4.445-14.96c.525-1.764-.603-3.575-2.506-4.025l-16.144-3.823z" stroke="#CCCAFF"/><path d="M347.003 17.097h48.686V38.71h-48.686z"/><path d="M372.317 1.316a4.953 4.953 0 0 0-3.367.394l-14.472 7.365c-.983.501-1.75 1.33-2.06 2.37l-5.27 17.616c-.62 2.077.806 4.231 3.17 4.789l20.058 4.726a4.956 4.956 0 0 0 3.367-.393l14.47-7.366c.985-.5 1.75-1.33 2.061-2.369l5.27-17.617c.62-2.076-.806-4.23-3.17-4.788l-20.057-4.727zM75.362 166.074a3.131 3.131 0 0 0-2.131.287l-9.233 4.865c-.627.33-1.122.87-1.331 1.537l-3.561 11.325c-.42 1.335.45 2.698 1.935 3.029l12.597 2.81a3.13 3.13 0 0 0 2.131-.288l9.232-4.865c.628-.33 1.123-.87 1.332-1.537l3.562-11.324c.419-1.335-.452-2.698-1.937-3.03l-12.596-2.81z" stroke="#CCCAFF"/><path d="M75.998 162.1a4.041 4.041 0 0 0-2.755.355l-11.905 6.21c-.809.423-1.443 1.115-1.709 1.975l-4.5 14.601c-.53 1.72.612 3.488 2.537 3.928l16.336 3.73c.963.22 1.946.069 2.755-.354l11.905-6.21c.809-.422 1.444-1.115 1.71-1.975l4.498-14.6c.53-1.721-.611-3.49-2.536-3.929l-16.336-3.73z" stroke="#CCCAFF"/><path d="M75.957 158.138a4.66 4.66 0 0 0-3.32.41l-14.267 7.654c-.97.52-1.725 1.383-2.03 2.462l-5.197 18.31c-.612 2.157.794 4.396 3.125 4.976l19.775 4.912a4.66 4.66 0 0 0 3.32-.41l14.267-7.654c.97-.52 1.725-1.383 2.031-2.462l5.196-18.309c.612-2.158-.794-4.397-3.124-4.976l-19.776-4.913zM273.361 60.073a3.134 3.134 0 0 0-2.13.288l-9.233 4.865c-.627.33-1.121.87-1.331 1.537l-3.562 11.325c-.42 1.334.452 2.697 1.936 3.029l12.598 2.81a3.133 3.133 0 0 0 2.13-.288l9.233-4.865c.627-.33 1.122-.87 1.331-1.537l3.562-11.325c.42-1.334-.452-2.697-1.936-3.029l-12.598-2.81z" stroke="#CCCAFF"/><path d="M273.998 56.1a4.042 4.042 0 0 0-2.755.355l-11.905 6.21c-.809.422-1.444 1.115-1.709 1.975l-4.5 14.6c-.53 1.721.612 3.489 2.537 3.929l16.336 3.73c.963.22 1.946.068 2.755-.354l11.905-6.21c.81-.423 1.444-1.115 1.71-1.975l4.498-14.6c.53-1.722-.61-3.49-2.536-3.929l-16.336-3.73z" stroke="#CCCAFF"/><path d="M273.957 53.138a4.658 4.658 0 0 0-3.32.41l-14.267 7.654c-.97.52-1.725 1.383-2.031 2.462l-5.196 18.31c-.612 2.157.794 4.396 3.125 4.975l19.775 4.913a4.66 4.66 0 0 0 3.32-.41l14.267-7.654c.97-.52 1.725-1.383 2.032-2.462l5.195-18.31c.612-2.157-.794-4.396-3.125-4.976l-19.775-4.912zM224.361 87.073a3.133 3.133 0 0 0-2.13.288l-9.233 4.865c-.627.33-1.122.87-1.331 1.537l-3.562 11.325c-.42 1.334.452 2.697 1.936 3.029l12.598 2.81a3.133 3.133 0 0 0 2.13-.288l9.233-4.865c.627-.33 1.122-.87 1.331-1.537l3.562-11.325c.42-1.334-.452-2.697-1.936-3.029l-12.598-2.81z" stroke="#CCCAFF"/><path d="M224.998 83.1a4.043 4.043 0 0 0-2.755.355l-11.904 6.21c-.81.422-1.444 1.115-1.71 1.975l-4.5 14.6c-.53 1.721.612 3.489 2.537 3.929l16.336 3.73c.963.22 1.946.068 2.756-.354l11.904-6.21c.809-.423 1.444-1.115 1.71-1.975l4.498-14.6c.53-1.722-.611-3.49-2.536-3.929l-16.336-3.73z" stroke="#CCCAFF"/><path d="M224.957 79.138a4.66 4.66 0 0 0-3.32.41l-14.267 7.654c-.97.52-1.725 1.383-2.031 2.462l-5.196 18.31c-.612 2.157.794 4.396 3.125 4.975l19.775 4.913a4.66 4.66 0 0 0 3.32-.41l14.267-7.654c.97-.52 1.725-1.383 2.031-2.462l5.196-18.31c.612-2.157-.794-4.396-3.124-4.976l-19.776-4.912zM26.362 192.074a3.13 3.13 0 0 0-2.131.287l-9.233 4.865c-.627.33-1.121.87-1.331 1.537l-3.562 11.325c-.42 1.335.452 2.698 1.936 3.029l12.597 2.81a3.13 3.13 0 0 0 2.131-.288l9.232-4.865c.628-.33 1.123-.87 1.332-1.537l3.562-11.324c.419-1.335-.452-2.698-1.937-3.03l-12.596-2.81z" stroke="#CCCAFF"/><path d="M9.166 188.117h35.8v30.863h-35.8z"/><path d="M26.267 188.216a3.937 3.937 0 0 0-2.712.353l-11.715 6.184c-.796.42-1.42 1.109-1.682 1.965l-4.427 14.537c-.522 1.713.601 3.473 2.496 3.91l16.075 3.715a3.936 3.936 0 0 0 2.712-.353l11.715-6.183c.796-.42 1.421-1.11 1.682-1.967l4.427-14.535c.522-1.713-.6-3.474-2.495-3.911l-16.076-3.715z" stroke="#CCCAFF"/><path d="M9.17 184.177h40.779v39.697H9.169z"/><path d="M26.668 184.318a4.675 4.675 0 0 0-3.354.417l-14.415 7.791c-.98.53-1.743 1.407-2.052 2.506l-5.25 18.636c-.618 2.197.802 4.476 3.157 5.066l19.98 5a4.678 4.678 0 0 0 3.354-.417l14.415-7.792c.98-.53 1.743-1.407 2.052-2.505l5.249-18.636c.619-2.197-.802-4.476-3.156-5.066l-19.98-5zM125.361 139.073a3.133 3.133 0 0 0-2.13.288l-9.233 4.865c-.627.33-1.122.87-1.331 1.537l-3.561 11.325c-.42 1.335.45 2.697 1.936 3.029l12.596 2.81a3.132 3.132 0 0 0 2.131-.288l9.233-4.865c.627-.33 1.121-.87 1.331-1.537l3.562-11.324c.42-1.335-.452-2.698-1.937-3.03l-12.597-2.81z" stroke="#CCCAFF"/><path d="M124.998 136.1a4.042 4.042 0 0 0-2.755.355l-11.905 6.21c-.809.422-1.443 1.115-1.709 1.975l-4.5 14.6c-.53 1.721.612 3.49 2.537 3.929l16.336 3.73c.962.22 1.946.068 2.755-.354l11.905-6.21c.809-.423 1.444-1.115 1.709-1.975l4.499-14.6c.53-1.722-.611-3.49-2.536-3.929l-16.336-3.73z" stroke="#CCCAFF"/><path d="M125.957 132.138a4.658 4.658 0 0 0-3.32.41l-14.267 7.654c-.97.52-1.725 1.383-2.03 2.462l-5.197 18.31c-.612 2.157.794 4.396 3.125 4.976l19.775 4.912c1.166.29 2.35.11 3.32-.41l14.267-7.654c.97-.52 1.725-1.383 2.031-2.462l5.196-18.31c.612-2.157-.794-4.396-3.124-4.975l-19.776-4.913zM323.362 34.073a3.133 3.133 0 0 0-2.13.288l-9.234 4.865c-.627.33-1.121.87-1.331 1.537l-3.562 11.325c-.42 1.334.452 2.697 1.936 3.029l12.598 2.81a3.133 3.133 0 0 0 2.13-.288l9.233-4.865c.627-.33 1.122-.87 1.331-1.537l3.561-11.325c.42-1.334-.45-2.697-1.935-3.029l-12.597-2.81z" stroke="#CCCAFF"/><path d="M322.998 30.1a4.041 4.041 0 0 0-2.755.355l-11.905 6.21c-.809.422-1.444 1.115-1.71 1.975l-4.498 14.6c-.53 1.721.61 3.489 2.536 3.929l16.336 3.73c.963.22 1.946.068 2.755-.354l11.905-6.21c.81-.423 1.444-1.115 1.71-1.975l4.498-14.6c.53-1.722-.61-3.49-2.536-3.929l-16.336-3.73z" stroke="#CCCAFF"/><path d="M322.957 26.138a4.658 4.658 0 0 0-3.32.41l-14.268 7.654c-.969.52-1.724 1.383-2.03 2.462l-5.196 18.31c-.612 2.157.794 4.396 3.125 4.975l19.775 4.913c1.165.289 2.35.111 3.32-.41l14.267-7.654c.97-.52 1.725-1.383 2.032-2.462l5.195-18.31c.612-2.157-.794-4.396-3.124-4.976l-19.776-4.912zM268.361 261.074a3.129 3.129 0 0 0-2.13.287l-9.233 4.865c-.627.33-1.122.87-1.331 1.537l-3.562 11.325c-.42 1.335.452 2.698 1.936 3.028l12.598 2.81a3.13 3.13 0 0 0 2.13-.287l9.233-4.865c.627-.33 1.122-.87 1.331-1.537l3.562-11.325c.42-1.334-.452-2.697-1.937-3.029l-12.597-2.81z" stroke="#CCCAFF"/><path d="M267.998 259.1a4.04 4.04 0 0 0-2.755.355l-11.904 6.21c-.81.422-1.444 1.115-1.71 1.975l-4.5 14.6c-.53 1.722.612 3.489 2.537 3.929l16.336 3.73a4.04 4.04 0 0 0 2.755-.354l11.905-6.21c.809-.422 1.444-1.115 1.709-1.975l4.5-14.6c.53-1.722-.612-3.489-2.537-3.929l-16.336-3.73z" stroke="#CCCAFF"/><path d="M267.957 255.138a4.655 4.655 0 0 0-3.32.41l-14.267 7.654c-.97.52-1.725 1.383-2.031 2.462l-5.196 18.31c-.612 2.157.794 4.396 3.125 4.976l19.775 4.912c1.165.29 2.35.11 3.32-.41l14.267-7.655c.97-.52 1.725-1.382 2.031-2.461l5.195-18.31c.613-2.157-.793-4.397-3.123-4.975l-19.776-4.913zM465.998 152.1a4.041 4.041 0 0 0-2.755.355l-11.905 6.21c-.809.422-1.443 1.115-1.71 1.975l-4.498 14.6c-.53 1.722.61 3.489 2.536 3.929l16.336 3.73a4.04 4.04 0 0 0 2.755-.354l11.905-6.21c.809-.422 1.444-1.115 1.71-1.975l4.498-14.6c.53-1.722-.611-3.49-2.536-3.929l-16.336-3.73z" stroke="#CCCAFF"/><path d="M465.957 148.138a4.655 4.655 0 0 0-3.32.41l-14.267 7.654c-.97.52-1.725 1.383-2.031 2.462l-5.196 18.31c-.612 2.157.794 4.396 3.125 4.976l19.775 4.912c1.166.29 2.35.11 3.32-.41l14.267-7.655c.97-.52 1.725-1.382 2.031-2.461l5.196-18.31c.612-2.157-.794-4.397-3.124-4.975l-19.776-4.913zM366.361 209.074a3.128 3.128 0 0 0-2.13.287l-9.233 4.865c-.627.33-1.121.87-1.331 1.537l-3.562 11.325c-.42 1.335.452 2.698 1.936 3.028l12.598 2.81a3.13 3.13 0 0 0 2.13-.287l9.233-4.865c.627-.33 1.122-.87 1.331-1.537l3.562-11.325c.42-1.334-.452-2.697-1.936-3.029l-12.598-2.81z" stroke="#CCCAFF"/><path d="M366.998 205.1a4.04 4.04 0 0 0-2.755.355l-11.905 6.21c-.809.422-1.444 1.115-1.71 1.975l-4.498 14.6c-.53 1.722.611 3.489 2.536 3.929l16.335 3.73a4.04 4.04 0 0 0 2.756-.354l11.905-6.21c.81-.422 1.444-1.115 1.71-1.975l4.498-14.6c.53-1.722-.61-3.489-2.536-3.929l-16.336-3.73z" stroke="#CCCAFF"/><path d="M366.957 201.138a4.656 4.656 0 0 0-3.32.41l-14.268 7.654c-.97.52-1.724 1.383-2.03 2.462l-5.196 18.31c-.612 2.157.794 4.396 3.125 4.976l19.775 4.912a4.66 4.66 0 0 0 3.32-.41l14.267-7.655c.97-.52 1.725-1.382 2.032-2.461l5.195-18.31c.612-2.157-.794-4.397-3.125-4.975l-19.775-4.913zM317.361 235.074a3.129 3.129 0 0 0-2.13.287l-9.232 4.865c-.628.33-1.122.87-1.332 1.537l-3.561 11.325c-.42 1.335.45 2.698 1.936 3.028l12.597 2.81a3.13 3.13 0 0 0 2.13-.287l9.233-4.865c.627-.33 1.122-.87 1.331-1.537l3.562-11.325c.42-1.334-.452-2.697-1.936-3.029l-12.598-2.81z" stroke="#CCCAFF"/><path d="M316.998 232.1a4.04 4.04 0 0 0-2.755.355l-11.905 6.21c-.809.422-1.443 1.115-1.709 1.975l-4.5 14.6c-.53 1.722.612 3.489 2.537 3.929l16.336 3.73a4.04 4.04 0 0 0 2.755-.354l11.905-6.21c.809-.422 1.444-1.115 1.709-1.975l4.5-14.6c.53-1.722-.612-3.489-2.537-3.929l-16.336-3.73z" stroke="#CCCAFF"/><path d="M316.957 228.138a4.655 4.655 0 0 0-3.32.41l-14.267 7.654c-.97.52-1.725 1.383-2.031 2.462l-5.196 18.31c-.612 2.157.794 4.396 3.125 4.976l19.775 4.912c1.165.29 2.35.11 3.32-.41l14.267-7.655c.97-.52 1.725-1.382 2.031-2.461l5.196-18.31c.612-2.157-.794-4.397-3.125-4.975l-19.775-4.913zM415.362 182.074a3.129 3.129 0 0 0-2.131.287l-9.232 4.865c-.628.33-1.122.87-1.332 1.537l-3.562 11.325c-.42 1.335.452 2.698 1.936 3.028l12.597 2.81a3.129 3.129 0 0 0 2.131-.287l9.233-4.865c.627-.33 1.122-.87 1.331-1.537l3.562-11.325c.419-1.334-.452-2.697-1.937-3.029l-12.596-2.81z" stroke="#CCCAFF"/><path d="M415.998 178.1a4.039 4.039 0 0 0-2.755.355l-11.905 6.21c-.809.422-1.444 1.115-1.71 1.975l-4.498 14.6c-.53 1.722.61 3.489 2.536 3.929l16.336 3.73c.963.22 1.946.069 2.755-.354l11.904-6.21c.81-.422 1.445-1.115 1.71-1.975l4.499-14.6c.53-1.722-.611-3.489-2.536-3.929l-16.336-3.73z" stroke="#CCCAFF"/><path d="M415.957 175.138a4.655 4.655 0 0 0-3.32.41l-14.268 7.654c-.969.52-1.724 1.383-2.03 2.462l-5.196 18.31c-.612 2.157.794 4.396 3.125 4.976l19.775 4.912c1.165.29 2.35.11 3.32-.41l14.267-7.655c.97-.52 1.725-1.382 2.032-2.461l5.195-18.31c.612-2.157-.794-4.397-3.124-4.975l-19.776-4.913zM128.361 38.073a3.133 3.133 0 0 0-2.13.288l-9.233 4.865c-.627.33-1.122.87-1.331 1.537l-3.562 11.324c-.42 1.335.452 2.699 1.936 3.03l12.598 2.81a3.131 3.131 0 0 0 2.13-.288l9.233-4.865c.627-.33 1.122-.87 1.331-1.537l3.562-11.325c.42-1.334-.452-2.697-1.936-3.029l-12.598-2.81z" stroke="#CCCAFF"/><path d="M128.998 35.1a4.044 4.044 0 0 0-2.755.355l-11.904 6.21c-.81.422-1.444 1.115-1.71 1.975l-4.5 14.6c-.53 1.722.612 3.489 2.537 3.929l16.336 3.73c.963.22 1.946.069 2.756-.354l11.904-6.21c.809-.422 1.444-1.115 1.709-1.975l4.499-14.6c.53-1.722-.611-3.49-2.536-3.929l-16.336-3.73z" stroke="#CCCAFF"/><path d="M128.957 31.138a4.655 4.655 0 0 0-3.32.41l-14.267 7.654c-.97.52-1.725 1.383-2.031 2.462l-5.196 18.31c-.612 2.157.794 4.396 3.125 4.976l19.775 4.912c1.165.29 2.35.11 3.32-.41l14.267-7.654c.97-.52 1.725-1.383 2.032-2.462l5.195-18.31c.612-2.157-.794-4.397-3.124-4.975l-19.776-4.913zM29.362 91.073a3.133 3.133 0 0 0-2.131.288l-9.233 4.865c-.627.33-1.122.87-1.331 1.537l-3.561 11.324c-.42 1.335.45 2.699 1.935 3.03l12.597 2.81a3.131 3.131 0 0 0 2.131-.288l9.232-4.865c.628-.33 1.123-.87 1.332-1.537l3.562-11.325c.419-1.334-.452-2.697-1.937-3.029l-12.596-2.81z" stroke="#CCCAFF"/><path d="M9.169 88.174h39.475v31.504H9.169z"/><path d="M29.682 88.276a3.971 3.971 0 0 0-2.75.36l-11.878 6.312c-.808.428-1.441 1.132-1.706 2.006l-4.49 14.839c-.529 1.749.61 3.545 2.531 3.992l16.301 3.792c.961.223 1.942.069 2.75-.36l11.88-6.312c.807-.43 1.44-1.133 1.705-2.008l4.49-14.838c.529-1.749-.61-3.545-2.531-3.992l-16.302-3.791z" stroke="#CCCAFF"/><path d="M9.168 84.233H52.63v39.697H9.168z"/><path d="M29.618 84.374a4.57 4.57 0 0 0-3.315.417l-14.249 7.791c-.969.53-1.722 1.407-2.028 2.506l-5.19 18.636c-.61 2.197.794 4.476 3.121 5.065l19.75 5a4.577 4.577 0 0 0 3.315-.416l14.248-7.792c.969-.53 1.723-1.407 2.028-2.505l5.189-18.637c.611-2.196-.793-4.476-3.12-5.065l-19.75-5z" stroke="#CCCAFF"/><path d="M161.135 16.101h30.838v19.86h-30.838z"/><path d="M177.41 11.502a3.043 3.043 0 0 0-2.119.294l-9.184 4.973c-.624.338-1.116.889-1.325 1.571l-3.542 11.577c-.418 1.364.449 2.758 1.926 3.096l12.531 2.873a3.04 3.04 0 0 0 2.12-.294L187 30.618c.624-.337 1.116-.889 1.325-1.571l3.542-11.576c.418-1.365-.449-2.758-1.926-3.097l-12.531-2.872z" stroke="#CCCAFF"/><path d="M157.314 16.101h39.532v23.575h-39.532z"/><path d="M178.067 8.039a3.874 3.874 0 0 0-2.724.363L163.58 14.76c-.8.432-1.427 1.14-1.69 2.021l-4.447 14.95c-.523 1.762.605 3.57 2.507 4.021l16.145 3.82c.951.225 1.923.07 2.723-.362l11.765-6.36c.8-.431 1.427-1.14 1.69-2.021l4.445-14.95c.525-1.761-.603-3.57-2.506-4.021l-16.144-3.82z" stroke="#CCCAFF"/><path d="M152.14 16.103h48.686V43.93H152.14z"/><path d="M177.454 4.374a4.707 4.707 0 0 0-3.367.417l-14.472 7.791c-.983.53-1.75 1.407-2.06 2.506l-5.27 18.636c-.62 2.197.806 4.476 3.17 5.065l20.058 5a4.713 4.713 0 0 0 3.367-.416l14.47-7.792c.985-.53 1.75-1.407 2.061-2.505l5.27-18.637c.62-2.196-.805-4.476-3.17-5.065l-20.057-5zM78.361 65.073a3.133 3.133 0 0 0-2.13.288l-9.233 4.865c-.627.33-1.122.87-1.331 1.537l-3.561 11.324c-.42 1.335.45 2.699 1.936 3.03l12.596 2.81a3.132 3.132 0 0 0 2.131-.288l9.233-4.865c.627-.33 1.121-.87 1.331-1.537l3.562-11.325c.42-1.334-.452-2.697-1.937-3.029l-12.597-2.81z" stroke="#CCCAFF"/><path d="M78.998 62.1a4.044 4.044 0 0 0-2.755.355l-11.905 6.21c-.809.422-1.443 1.115-1.709 1.975l-4.5 14.6c-.53 1.722.612 3.489 2.537 3.929l16.336 3.73c.962.22 1.946.069 2.755-.354l11.905-6.21c.809-.422 1.444-1.115 1.709-1.975l4.499-14.6c.53-1.722-.611-3.49-2.536-3.929l-16.336-3.73z" stroke="#CCCAFF"/><path d="M78.957 58.138a4.654 4.654 0 0 0-3.32.41L61.37 66.202c-.97.52-1.725 1.383-2.03 2.462l-5.197 18.31c-.612 2.157.794 4.396 3.125 4.976l19.775 4.912c1.166.29 2.35.11 3.32-.41l14.267-7.654c.97-.52 1.725-1.383 2.031-2.462l5.196-18.31c.612-2.157-.794-4.397-3.124-4.975l-19.776-4.913zM221.361 187.073a3.133 3.133 0 0 0-2.13.288l-9.233 4.865c-.627.33-1.122.87-1.331 1.537l-3.562 11.325c-.42 1.334.452 2.697 1.936 3.029l12.598 2.81a3.133 3.133 0 0 0 2.13-.288l9.233-4.865c.627-.33 1.122-.87 1.331-1.537l3.562-11.325c.42-1.334-.452-2.697-1.936-3.029l-12.598-2.81z" stroke="#CCCAFF"/><path d="M220.998 184.1a4.04 4.04 0 0 0-2.755.355l-11.904 6.21c-.81.422-1.444 1.115-1.71 1.975l-4.5 14.6c-.53 1.722.612 3.489 2.537 3.929l16.336 3.73a4.04 4.04 0 0 0 2.756-.354l11.904-6.21c.809-.423 1.444-1.115 1.709-1.975l4.499-14.6c.53-1.721-.611-3.489-2.536-3.929l-16.336-3.73z" stroke="#CCCAFF"/><path d="M220.957 180.138a4.66 4.66 0 0 0-3.32.41l-14.267 7.654c-.97.52-1.725 1.383-2.031 2.462l-5.196 18.31c-.612 2.157.794 4.396 3.125 4.976l19.775 4.912a4.663 4.663 0 0 0 3.32-.41l14.267-7.654c.97-.52 1.725-1.383 2.032-2.462l5.195-18.309c.612-2.158-.794-4.397-3.124-4.977l-19.776-4.912zM419.362 81.073a3.133 3.133 0 0 0-2.131.288l-9.232 4.865c-.628.33-1.122.87-1.332 1.537l-3.562 11.325c-.42 1.334.452 2.698 1.936 3.028l12.597 2.81a3.131 3.131 0 0 0 2.131-.287l9.233-4.865c.627-.33 1.122-.87 1.331-1.537l3.562-11.325c.419-1.334-.452-2.697-1.937-3.029l-12.596-2.81z" stroke="#CCCAFF"/><path d="M418.998 78.1a4.04 4.04 0 0 0-2.755.355l-11.905 6.21c-.809.422-1.443 1.115-1.71 1.975l-4.498 14.6c-.53 1.721.61 3.489 2.536 3.929l16.336 3.73a4.04 4.04 0 0 0 2.755-.354l11.904-6.21c.81-.422 1.445-1.115 1.71-1.975l4.499-14.6c.53-1.721-.611-3.489-2.536-3.929l-16.336-3.73z" stroke="#CCCAFF"/><path d="M418.957 74.138a4.659 4.659 0 0 0-3.32.41l-14.267 7.654c-.97.52-1.725 1.383-2.031 2.462l-5.196 18.31c-.612 2.157.794 4.396 3.125 4.975l19.775 4.913c1.166.29 2.35.11 3.32-.41l14.267-7.654c.97-.52 1.725-1.383 2.031-2.462l5.196-18.31c.612-2.157-.794-4.396-3.124-4.975l-19.776-4.913zM122.362 240.073a3.133 3.133 0 0 0-2.131.288l-9.233 4.865c-.627.33-1.122.87-1.331 1.537l-3.561 11.325c-.42 1.334.45 2.697 1.935 3.029l12.597 2.81a3.133 3.133 0 0 0 2.131-.288l9.232-4.865c.628-.33 1.123-.87 1.332-1.537l3.562-11.325c.419-1.334-.452-2.697-1.937-3.029l-12.596-2.81z" stroke="#CCCAFF"/><path d="M121.998 237.1a4.04 4.04 0 0 0-2.755.355l-11.905 6.21c-.809.422-1.443 1.115-1.709 1.975l-4.5 14.6c-.53 1.722.612 3.489 2.537 3.929l16.336 3.73a4.04 4.04 0 0 0 2.755-.354l11.905-6.21c.809-.422 1.444-1.115 1.71-1.975l4.498-14.6c.53-1.721-.611-3.489-2.536-3.929l-16.336-3.73z" stroke="#CCCAFF"/><path d="M121.957 233.138a4.66 4.66 0 0 0-3.32.41l-14.267 7.654c-.97.52-1.725 1.383-2.03 2.462l-5.197 18.31c-.612 2.157.794 4.396 3.125 4.976l19.775 4.912a4.663 4.663 0 0 0 3.32-.41l14.267-7.654c.97-.52 1.725-1.383 2.031-2.462l5.196-18.309c.612-2.158-.794-4.397-3.124-4.977l-19.776-4.912zM320.361 134.073a3.132 3.132 0 0 0-2.13.288l-9.233 4.865c-.627.33-1.121.87-1.331 1.537l-3.562 11.325c-.42 1.334.452 2.697 1.936 3.029l12.598 2.81a3.133 3.133 0 0 0 2.13-.288l9.233-4.865c.627-.33 1.122-.87 1.331-1.537l3.562-11.325c.42-1.334-.452-2.697-1.936-3.029l-12.598-2.81z" stroke="#CCCAFF"/><path d="M319.998 131.1a4.04 4.04 0 0 0-2.755.355l-11.905 6.21c-.809.422-1.444 1.115-1.71 1.975l-4.498 14.6c-.53 1.722.611 3.489 2.536 3.929l16.335 3.73a4.04 4.04 0 0 0 2.756-.354l11.905-6.21c.81-.423 1.444-1.115 1.71-1.975l4.498-14.6c.53-1.721-.61-3.489-2.536-3.929l-16.336-3.73z" stroke="#CCCAFF"/><path d="M319.957 127.138a4.66 4.66 0 0 0-3.32.41l-14.268 7.654c-.97.52-1.724 1.383-2.03 2.462l-5.196 18.309c-.612 2.158.794 4.397 3.125 4.976l19.775 4.913a4.66 4.66 0 0 0 3.32-.41l14.267-7.654c.97-.52 1.725-1.383 2.032-2.462l5.195-18.31c.612-2.157-.794-4.396-3.125-4.976l-19.775-4.912zM271.361 160.073a3.133 3.133 0 0 0-2.13.288l-9.233 4.865c-.627.33-1.122.87-1.331 1.537l-3.562 11.325c-.42 1.334.452 2.697 1.936 3.029l12.598 2.81a3.133 3.133 0 0 0 2.13-.288l9.233-4.865c.627-.33 1.122-.87 1.331-1.537l3.562-11.325c.42-1.334-.452-2.697-1.936-3.029l-12.598-2.81z" stroke="#CCCAFF"/><path d="M270.998 157.1a4.04 4.04 0 0 0-2.755.355l-11.904 6.21c-.81.422-1.444 1.115-1.71 1.975l-4.5 14.6c-.53 1.722.612 3.489 2.537 3.929l16.336 3.73a4.04 4.04 0 0 0 2.755-.354l11.905-6.21c.809-.423 1.444-1.115 1.709-1.975l4.5-14.6c.53-1.721-.612-3.489-2.537-3.929l-16.336-3.73z" stroke="#CCCAFF"/><path d="M270.957 154.138a4.66 4.66 0 0 0-3.32.41l-14.267 7.654c-.97.52-1.725 1.383-2.031 2.462l-5.196 18.309c-.612 2.158.794 4.397 3.125 4.976l19.775 4.913a4.66 4.66 0 0 0 3.32-.41l14.267-7.654c.97-.52 1.725-1.383 2.031-2.462l5.196-18.31c.612-2.157-.794-4.396-3.125-4.976l-19.775-4.912zM468.957 48.138a4.658 4.658 0 0 0-3.32.41l-14.267 7.654c-.97.52-1.725 1.383-2.031 2.462l-5.196 18.31c-.612 2.157.794 4.396 3.125 4.975l19.775 4.913a4.66 4.66 0 0 0 3.32-.41l14.267-7.654c.97-.52 1.725-1.383 2.032-2.462l5.195-18.31c.612-2.157-.794-4.396-3.125-4.975l-19.775-4.913zM72.957 259.138a4.66 4.66 0 0 0-3.32.41l-14.267 7.654c-.97.52-1.725 1.383-2.03 2.462l-5.197 18.31c-.612 2.157.794 4.396 3.125 4.976l19.775 4.912a4.663 4.663 0 0 0 3.32-.41l14.267-7.654c.97-.52 1.725-1.383 2.032-2.462l5.195-18.309c.612-2.158-.794-4.397-3.124-4.977l-19.776-4.912zM172.361 213.073a3.133 3.133 0 0 0-2.13.288l-9.233 4.865c-.627.33-1.122.87-1.331 1.537l-3.561 11.325c-.42 1.334.45 2.697 1.936 3.029l12.596 2.81a3.134 3.134 0 0 0 2.131-.288l9.233-4.865c.627-.33 1.121-.87 1.331-1.537l3.562-11.325c.42-1.334-.452-2.697-1.937-3.029l-12.597-2.81z" stroke="#CCCAFF"/><path d="M171.998 210.1a4.04 4.04 0 0 0-2.755.355l-11.905 6.21c-.809.422-1.443 1.115-1.709 1.975l-4.5 14.6c-.53 1.722.612 3.489 2.537 3.929l16.336 3.73a4.04 4.04 0 0 0 2.755-.354l11.905-6.21c.809-.423 1.444-1.115 1.709-1.975l4.499-14.6c.53-1.721-.611-3.489-2.536-3.929l-16.336-3.73z" stroke="#CCCAFF"/><path d="M171.957 206.138a4.658 4.658 0 0 0-3.32.41l-14.267 7.654c-.97.52-1.725 1.383-2.03 2.462l-5.197 18.31c-.612 2.157.794 4.396 3.125 4.976l19.775 4.912a4.663 4.663 0 0 0 3.32-.41l14.267-7.654c.97-.52 1.725-1.383 2.031-2.462l5.196-18.309c.612-2.158-.794-4.397-3.124-4.977l-19.776-4.912zM370.362 108.073a3.133 3.133 0 0 0-2.13.288l-9.234 4.865c-.627.33-1.121.87-1.331 1.537l-3.562 11.325c-.42 1.334.452 2.698 1.936 3.028l12.598 2.81a3.131 3.131 0 0 0 2.13-.287l9.233-4.865c.627-.33 1.122-.87 1.331-1.537l3.561-11.325c.42-1.334-.45-2.697-1.935-3.029l-12.597-2.81z" stroke="#CCCAFF"/><path d="M369.998 105.1a4.04 4.04 0 0 0-2.755.355l-11.905 6.21c-.809.422-1.444 1.115-1.71 1.975l-4.498 14.6c-.53 1.721.61 3.489 2.536 3.929l16.336 3.73a4.04 4.04 0 0 0 2.755-.354l11.905-6.21c.81-.422 1.444-1.115 1.71-1.975l4.498-14.6c.53-1.721-.61-3.489-2.536-3.929l-16.336-3.73z" stroke="#CCCAFF"/><path d="M369.957 101.138a4.658 4.658 0 0 0-3.32.41l-14.268 7.654c-.969.52-1.724 1.383-2.03 2.462l-5.196 18.31c-.612 2.157.794 4.396 3.125 4.975l19.775 4.913c1.165.29 2.35.11 3.32-.41l14.267-7.654c.97-.52 1.725-1.383 2.032-2.462l5.195-18.31c.612-2.157-.794-4.396-3.124-4.975l-19.776-4.913zM462.998 253.1a4.04 4.04 0 0 0-2.755.355l-11.905 6.21c-.809.423-1.444 1.115-1.71 1.975l-4.498 14.601c-.53 1.72.611 3.488 2.536 3.928l16.336 3.73c.963.22 1.946.069 2.755-.354l11.905-6.21c.809-.422 1.444-1.115 1.71-1.975l4.498-14.6c.53-1.721-.611-3.49-2.536-3.929l-16.336-3.73z" stroke="#CCCAFF"/><path d="M462.957 249.138a4.656 4.656 0 0 0-3.32.41l-14.268 7.654c-.97.52-1.724 1.383-2.03 2.462l-5.196 18.31c-.612 2.157.794 4.396 3.125 4.976l19.775 4.912a4.66 4.66 0 0 0 3.32-.41l14.267-7.654c.97-.52 1.725-1.383 2.032-2.462l5.195-18.31c.612-2.157-.794-4.396-3.125-4.975l-19.775-4.913z" stroke="#CCCAFF"/></g><path fill="url(#a)" d="M0 0h526v402H0z" transform="translate(9 15)"/></g></svg>