<svg xmlns="http://www.w3.org/2000/svg" xmlns:xlink="http://www.w3.org/1999/xlink" viewBox="0 0 1920 1903"><defs><linearGradient id="a" x1="27.065%" x2="32.411%" y1=".933%" y2="40.12%"><stop offset="0%" stop-color="#4E2B7F"/><stop offset="100%" stop-color="#2D1457"/></linearGradient><linearGradient id="b" x1="50%" x2="50%" y1="0%" y2="100%"><stop offset="0%" stop-color="#512D82"/><stop offset="100%" stop-color="#28144B"/></linearGradient><path id="c" d="M2041 1292c118.357-51.559-35.606-910.336 47.642-1074.775 6.027-11.905 9.358-23.594 9.358-35.01 0-265.747-17.413-207.215-399-38.11-381.587 169.104-777.205 400.61-1381.092 436.16C212.36 586.478-12.678 607 64.082 607c.893 0-118.29 239.61-33.082 269 448.056 154.54 2010 416 2010 416z"/><linearGradient id="d" x1="50.475%" x2="55.259%" y1="42.983%" y2="75.109%"><stop offset="0%" stop-color="#512D82"/><stop offset="100%" stop-color="#28144B"/></linearGradient><path id="e" d="M120.313 932C121 932 99 1540 113 1540c1287.897 0 2139-1201.23 2139-1356.776 0-267.562-55.005-184.952-412.218-31.688S1268 445 813 562.665C610.433 615.05 280.687 638 113 657c-87.491 9.913-97.585 10.99 8 58 4.309 1.918-.687 217-.687 217z"/></defs><g fill="none" fill-rule="evenodd"><path fill="url(#a)" d="M-1 0h1921v1903H-1z"/><g transform="translate(-132 200)"><use fill="url(#b)" xlink:href="#c"/><use fill="url(#d)" xlink:href="#e"/></g></g></svg>