<svg width="50" height="51" xmlns="http://www.w3.org/2000/svg"><g fill="none" fill-rule="evenodd"><path d="M0 .125h49.877v49.898H0z"/><path d="M13.87 17.114h.46c.545.006 1.09-.02 1.63.028.988.086 1.416.58 1.417 1.576v12.11c0 .806-.21 1.021-1.006 1.027-.677.006-1.354.001-2.05.001l-.575 3.476h5.592v4.616h3.04v-4.48h2.199v4.486h2.737v-4.447c1.374-.25 2.696-.414 3.976-.742 1.48-.379 2.758-1.128 3.56-2.517.66-1.14.883-2.385.885-3.675.002-2.375-1.086-3.874-3.335-4.653-.212-.074-.425-.142-.68-.227.086-.058.127-.087.17-.113 2.372-1.435 2.977-4.896 1.23-7.064-.853-1.058-2.04-1.553-3.307-1.868-.811-.202-1.646-.31-2.514-.468V9.558h-2.734v4.546h-2.212v-4.54h-3.027v4.668H13.87v2.882zM24.94.125c13.762 0 24.948 11.197 24.938 24.967-.01 13.744-11.202 24.932-24.942 24.931C11.182 50.023-.025 38.798 0 25.048.026 11.28 11.188.126 24.94.125z" fill="#FFF"/><path d="M22.384 32.004V25.86c1.961-.068 3.901-.142 5.776.53 1.494.535 2.247 1.811 1.885 3.201-.189.724-.635 1.242-1.296 1.591-1.058.56-2.212.742-3.379.81-.984.057-1.974.012-2.986.012M22.394 17.431c1.636-.027 3.264-.134 4.822.483 1.264.502 1.882 1.732 1.521 3.037-.255.92-.976 1.39-1.809 1.657a8.438 8.438 0 0 1-1.949.373c-.848.063-1.703.015-2.585.015v-5.564z" fill="#FFF"/></g></svg>