<svg width="33" height="52" xmlns="http://www.w3.org/2000/svg"><g fill="none" fill-rule="evenodd"><path d="M31.84 25.373l-2.997-1.312c-3.926-1.72-7.85-3.444-11.78-5.153-.285-.124-.416-.25-.415-.58.01-5.984.006-11.968.007-17.95 0-.08.008-.16.104-.28L31.9 25.28l-.06.092M.526 25.321C5.578 16.835 10.55 8.478 15.596.001c.017.274.032.414.032.554 0 5.895 0 11.791.004 17.687 0 .303-.024.508-.37.66-4.75 2.061-9.49 4.145-14.233 6.222-.116.051-.237.093-.503.197" fill="#FFF"/><path d="M16.697 19.867h15.604v15.964H16.697z"/><path d="M32.301 26.7l-15.604 9.131V19.867L32.301 26.7M0 26.696l15.608-6.836v15.977L0 26.697M32.03 30.22c-5.088 7.196-10.175 14.393-15.264 21.589l-.111-.039v-.381c0-3.953.002-7.906-.004-11.859 0-.269.037-.457.308-.614 4.957-2.889 9.909-5.79 14.86-8.688.044-.025.09-.043.136-.064l.076.056M15.597 51.911L.189 30.116c.227.104.338.143.437.201 4.883 2.855 9.766 5.71 14.64 8.578.166.098.347.343.348.521.019 4.056.014 8.112.013 12.168 0 .061-.01.122-.03.327" fill="#FFF"/></g></svg>