<?xml version="1.0" encoding="utf-8"?>
<!-- Generator: Adobe Illustrator 22.0.1, SVG Export Plug-In . SVG Version: 6.00 Build 0)  -->
<svg version="1.1" id="Layer_1" xmlns="http://www.w3.org/2000/svg" xmlns:xlink="http://www.w3.org/1999/xlink" x="0px" y="0px"
	 viewBox="0 0 33 33" style="enable-background:new 0 0 33 33;" xml:space="preserve">
<style type="text/css">
	.st0{fill:#FFFFFF;}
</style>
<path class="st0" d="M16.4,0.6C7.3,0.6,0,7.7,0,16.5s7.3,15.9,16.3,15.9s16.3-7.1,16.3-15.9c0-4.2-1.7-8.3-4.8-11.3
	S20.7,0.6,16.4,0.6z M21,10.2h-2.2c-0.8,0-0.9,0.3-0.9,1.1v1.8H21l-0.3,3.3h-2.8v9.8h-4v-9.7h-2.1v-3.3h2.1v-2.6
	c0-2.4,1.3-3.7,4.4-3.7H21L21,10.2L21,10.2z"/>
</svg>
