<svg xmlns="http://www.w3.org/2000/svg" width="135" height="135" viewBox="0 0 135 135">
    <defs>
        <filter id="a" width="243.6%" height="260.7%" x="-71.8%" y="-80.4%" filterUnits="objectBoundingBox">
            <feOffset dy="20" in="SourceAlpha" result="shadowOffsetOuter1"/>
            <feGaussianBlur in="shadowOffsetOuter1" result="shadowBlurOuter1" stdDeviation="7.5"/>
            <feColorMatrix in="shadowBlurOuter1" result="shadowMatrixOuter1" values="0 0 0 0 0.635294118 0 0 0 0 0.623529412 0 0 0 0 0.933333333 0 0 0 0.5 0"/>
            <feMerge>
                <feMergeNode in="shadowMatrixOuter1"/>
                <feMergeNode in="SourceGraphic"/>
            </feMerge>
        </filter>
    </defs>
    <path fill="#645FE4" fill-rule="evenodd" d="M48.62 34.433c-.81-.522-1.36-1.303-1.549-2.2-.19-.899.003-1.843.542-2.66.36-.545.715-1.095 1.072-1.643 1.307-2.018 2.66-4.105 4.23-6.003 4.417-5.34 9.73-8.736 15.797-10.092 1.652-.37 3.474-.577 5.732-.65 1.107-.037 2.298-.053 3.75-.053.903 0 1.806.005 2.71.012l1.13.008a485.103 485.103 0 0 1-4.877-4.873c-.59-.6-1.025-1.316-1.228-2.02-.41-1.412.221-2.911 1.568-3.73A3.52 3.52 0 0 1 79.32 0c.765 0 1.507.268 2.148.776.35.278.645.577.93.867l.212.215c3.323 3.32 6.647 6.639 9.967 9.961 1.898 1.9 1.897 3.826-.003 5.725a7211.73 7211.73 0 0 1-3.953 3.945c-2.165 2.16-4.33 4.32-6.49 6.483-.578.58-1.499 1.352-2.805 1.352-.117 0-.237-.006-.359-.019-1.414-.15-2.491-.98-2.954-2.28-.485-1.362-.18-2.68.855-3.716l1.283-1.281c1.29-1.29 2.581-2.579 3.875-3.864l-.775-.004c-1-.006-2-.012-2.999-.012-1.754 0-3.182.019-4.493.058-5.592.17-10.384 2.561-14.65 7.311-1.273 1.419-2.35 2.992-3.49 4.658-.49.715-.997 1.454-1.515 2.173-.091.126-.182.28-.278.44-.1.171-.202.341-.313.504C52.776 34.377 51.677 35 50.498 35a3.472 3.472 0 0 1-1.879-.567zm-8.318 13.104c1.605 1.007 2.165 3.026 1.277 4.599-3.366 5.942-7.539 12.638-14.478 16.877-4.312 2.634-8.967 3.97-13.836 3.97L4.093 73c-1.936 0-3.296-.823-4.045-2.447-.074-.161-.062-2.28.035-2.46.817-1.514 2.105-2.25 3.938-2.25l9.021.044c5.526 0 10.345-2.082 14.73-6.366 2.554-2.494 4.46-5.447 5.835-7.74l.345-.58c.529-.886 1.074-1.803 1.674-2.682.658-.966 1.689-1.519 2.828-1.519.648 0 1.287.185 1.848.537zm52.45 19.127c1.63 1.64 1.638 3.673.022 5.305-3.556 3.59-7.188 7.239-10.797 10.84-.769.768-1.718 1.191-2.669 1.191-.891 0-1.75-.371-2.416-1.046-1.4-1.416-1.32-3.558.193-5.092a936.07 936.07 0 0 1 4.962-4.987l-3.232.005c-1.949 0-4.043-.017-6.142-.144-5.434-.327-10.44-2.497-15.305-6.634-2.88-2.45-5.43-5.508-7.797-9.353-5.462-8.87-10.932-17.736-16.402-26.601-2.97-4.814-6.391-8.227-10.458-10.434-2.773-1.506-5.843-2.27-9.123-2.27l-1.129.003c-.765 0-8.228.024-8.29.024-1.936 0-3.258-.751-4.04-2.297A1.203 1.203 0 0 1 0 14.63v-1.34c0-.183.042-.363.12-.528.76-1.561 2.098-2.353 3.977-2.353l.137.001c1.435.027 2.93.04 4.57.04a377.98 377.98 0 0 0 4.872-.03c6.367 0 12.232 2.202 17.431 6.547 3.003 2.508 5.665 5.68 8.139 9.695 1.18 1.915 2.36 3.833 3.539 5.75 4.437 7.21 9.024 14.666 13.605 21.953 3 4.775 6.8 8.128 11.29 9.966 1.974.809 3.79 1.264 5.396 1.356a83.33 83.33 0 0 0 4.793.117c1.134 0 2.272-.013 3.416-.026l.712-.008-.841-.845a840.117 840.117 0 0 1-4.164-4.19c-1.223-1.245-1.456-2.957-.592-4.36.634-1.031 1.753-1.67 2.919-1.67.35 0 .698.055 1.033.168.592.196 1.18.564 1.654 1.035 3.448 3.426 7.064 7.044 10.747 10.756z" filter="url(#a)" transform="translate(21 15)"/>
</svg>
