<svg xmlns="http://www.w3.org/2000/svg" width="135" height="135" viewBox="0 0 135 135">
    <defs>
        <filter id="a" width="257%" height="258.8%" x="-78.5%" y="-79.4%" filterUnits="objectBoundingBox">
            <feOffset dy="20" in="SourceAlpha" result="shadowOffsetOuter1"/>
            <feGaussianBlur in="shadowOffsetOuter1" result="shadowBlurOuter1" stdDeviation="7.5"/>
            <feColorMatrix in="shadowBlurOuter1" result="shadowMatrixOuter1" values="0 0 0 0 0.635294118 0 0 0 0 0.623529412 0 0 0 0 0.933333333 0 0 0 0.5 0"/>
            <feMerge>
                <feMergeNode in="shadowMatrixOuter1"/>
                <feMergeNode in="SourceGraphic"/>
            </feMerge>
        </filter>
    </defs>
    <path fill="#645FE4" fill-rule="evenodd" d="M19.735 85c-8.342-.001-15.278-4.339-18.104-11.32-3.055-7.548-1.814-14.312 3.685-20.105 6.477-6.825 13.375-13.52 19.462-19.426C28.21 30.821 32.756 29 37.605 29c4.885 0 9.49 1.837 12.967 5.173 1.711 1.642 1.907 3.981.465 5.564a3.766 3.766 0 0 1-2.817 1.24c-1.022 0-2.034-.401-2.848-1.126-2.33-2.079-4.839-3.088-7.672-3.088-.244 0-.491.007-.741.023-2.713.17-5.133 1.3-7.194 3.355-2.408 2.402-4.822 4.8-7.236 7.197l-3.198 3.178c-.84.835-1.683 1.668-2.527 2.5-1.878 1.852-3.818 3.767-5.712 5.709-2.727 2.794-3.795 6.668-2.857 10.362.917 3.62 3.628 6.464 7.25 7.604 1.18.372 2.354.56 3.492.56 2.836 0 5.422-1.13 7.685-3.36l.242-.238c3.328-3.276 6.769-6.663 10.139-10.134.304-.314.43-.339.43-.339.056 0 .201.014.514.138 2.66 1.06 5.587 1.623 8.704 1.675l-5.077 5.053a4633.505 4633.505 0 0 1-9.52 9.458c-3.49 3.455-7.879 5.406-12.36 5.496zm27.843-29.351c-5.013 0-9.266-1.758-13.004-5.375-1.433-1.387-1.457-3.706-.055-5.17.715-.748 1.751-1.176 2.842-1.176.968 0 1.892.337 2.602.95 2.178 1.881 4.156 2.84 6.413 3.109.504.06 1.006.09 1.491.09 2.973 0 5.607-1.097 7.828-3.262 2.01-1.958 4.019-3.919 6.027-5.881a4174.7 4174.7 0 0 1 3.768-3.674c2.888-2.814 5.874-5.724 8.825-8.648 2.364-2.344 3.54-5.512 3.227-8.693-.308-3.13-2.03-5.96-4.726-7.764a10.84 10.84 0 0 0-6.05-1.84c-2.938 0-5.755 1.162-7.932 3.27-3.228 3.125-6.886 6.668-10.453 10.24-.234.234-.333.265-.337.267-.001-.003-.12-.009-.394-.116-2.712-1.066-5.672-1.635-8.804-1.694l3.464-3.374c3.48-3.387 7.078-6.888 10.582-10.372C56.35 3.098 60.224 1.192 64.73.71c.179-.018.363-.058.548-.117h3.003c.168.048.356.095.564.126 7.965 1.16 13.125 5.344 15.774 12.796.285.804.452 1.688.627 2.624.085.446.158.833.24 1.213v3.205l-.152.765c-.124.667-.25 1.342-.41 1.986-.81 3.24-2.372 6.018-4.644 8.258a3383.3 3383.3 0 0 1-19.261 18.85c-3.34 3.24-7.36 4.942-12.289 5.203-.388.02-.772.03-1.152.03z" filter="url(#a)" transform="translate(23 11)"/>
</svg>
