<?xml version="1.0" encoding="utf-8"?>
<!-- Generator: Adobe Illustrator 22.0.1, SVG Export Plug-In . SVG Version: 6.00 Build 0)  -->
<svg version="1.1" id="Layer_1" xmlns="http://www.w3.org/2000/svg" xmlns:xlink="http://www.w3.org/1999/xlink" x="0px" y="0px"
	 viewBox="0 0 66 68" style="enable-background:new 0 0 66 68;" xml:space="preserve">
<style type="text/css">
	.st0{filter:url(#Adobe_OpacityMaskFilter);}
	.st1{fill:#FFFFFF;}
	.st2{mask:url(#group-52-c_4_);fill:#F6F6F6;}
</style>
<defs>
	<filter id="Adobe_OpacityMaskFilter" filterUnits="userSpaceOnUse" x="17.4" y="17.9" width="28.4" height="28.1">
		<feColorMatrix  type="matrix" values="1 0 0 0 0  0 1 0 0 0  0 0 1 0 0  0 0 0 1 0"/>
	</filter>
</defs>
<mask maskUnits="userSpaceOnUse" x="17.4" y="17.9" width="28.4" height="28.1" id="group-52-c_4_">
	<g class="st0">
		<polygon id="group-52-b_4_" class="st1" points="17.4,17.9 45.8,17.9 45.8,46 17.4,46 		"/>
	</g>
</mask>
<path class="st2" d="M38.7,21.3l3.7,3.7h-3.8L38.7,21.3z M24.5,20.3h11.9l0,7h7.1v16.4H24.5v-7h7.1v4.7l1.9-1.4l6-4.4l-7.9-5.9v4.7
	h-7.1V20.3z M22.1,17.9v16.4h-4.7v2.3h4.7V46h1.2c7.1,0,14.2,0,21.3,0h1.2V25l0,0l0,0l-7.1-7v0H22.1z"/>
</svg>
