<svg xmlns="http://www.w3.org/2000/svg" width="135" height="135" viewBox="0 0 135 135">
    <defs>
        <filter id="a" width="240.6%" height="257%" x="-70.3%" y="-78.5%" filterUnits="objectBoundingBox">
            <feOffset dy="20" in="SourceAlpha" result="shadowOffsetOuter1"/>
            <feGaussianBlur in="shadowOffsetOuter1" result="shadowBlurOuter1" stdDeviation="7.5"/>
            <feColorMatrix in="shadowBlurOuter1" result="shadowMatrixOuter1" values="0 0 0 0 0.635294118 0 0 0 0 0.623529412 0 0 0 0 0.933333333 0 0 0 0.5 0"/>
            <feMerge>
                <feMergeNode in="shadowMatrixOuter1"/>
                <feMergeNode in="SourceGraphic"/>
            </feMerge>
        </filter>
    </defs>
    <path fill="#645FE4" fill-rule="evenodd" d="M51 57.497c5.783 1.492 9.858 5.861 10.812 11.755 1.242 7.67-3.791 14.906-11.457 16.472-.1.02-.197.057-.294.093a9.46 9.46 0 0 1-.336.118 1.29 1.29 0 0 1-.404.065h-3.398c-.089 0-.18-.01-.267-.028-3.352-.707-5.843-1.883-7.84-3.704-4.769-4.348-6.154-11.128-3.445-16.868 2.024-4.287 6.12-7.374 10.629-8.188v-7.424a14.385 14.385 0 0 1-7.753-4.042A14.399 14.399 0 0 1 33 35.496c.001-1.92.38-3.757 1.065-5.437-1.474-.818-3.089-1.718-4.594-2.557-1.58-.882-3.282-1.83-4.814-2.68A14.46 14.46 0 0 1 14.555 29h-.066c-3.867 0-7.518-1.535-10.28-4.323-2.75-2.775-4.244-6.42-4.208-10.26C.074 6.466 6.586 0 14.517 0 22.503.014 29 6.51 29 14.482c0 1.931-.38 3.776-1.07 5.465 1.37.76 2.88 1.6 4.364 2.427l.143.08c1.673.933 3.379 1.883 4.9 2.727A14.483 14.483 0 0 1 47.478 21c4.351 0 8.267 1.926 10.933 4.97 1.52-.91 3.275-1.963 5.034-3.019 1.531-.92 3.053-1.833 4.424-2.654a13.634 13.634 0 0 1-1.3-5.818C66.572 6.714 73.115.385 81.154.369c8.038 0 14.619 6.31 14.672 14.064.025 3.745-1.493 7.298-4.276 10.004a14.733 14.733 0 0 1-10.328 4.2h-.091a14.89 14.89 0 0 1-9.617-3.57 4207.29 4207.29 0 0 0-4.531 2.717l-.49.294c-1.8 1.08-3.602 2.162-5.155 3.092.425 1.351.657 2.787.662 4.275.024 6.79-4.673 12.538-11 14.122v7.93zM14.521 5.998C9.831 6 6.014 9.804 6.014 14.48c0 4.68 3.812 8.495 8.498 8.506 4.678 0 8.485-3.81 8.489-8.494a8.44 8.44 0 0 0-2.471-6.016 8.425 8.425 0 0 0-6.006-2.478h-.003zm66.657.218c-4.72.002-8.561 3.715-8.563 8.277 0 2.215.89 4.295 2.507 5.86 1.617 1.564 3.767 2.425 6.055 2.425 4.736-.003 8.591-3.722 8.593-8.29 0-2.203-.895-4.278-2.52-5.843a8.704 8.704 0 0 0-6.072-2.429zM47.497 27.013c-4.666 0-8.482 3.792-8.507 8.454a8.408 8.408 0 0 0 2.452 5.996 8.458 8.458 0 0 0 6.022 2.53c4.695 0 8.53-3.79 8.547-8.449.017-4.68-3.782-8.506-8.47-8.531h-.044zm-.004 35.994c-2.25.007-4.381.903-6 2.527-1.619 1.625-2.507 3.755-2.5 5.998.013 4.677 3.838 8.482 8.524 8.482a8.463 8.463 0 0 0 6.012-2.515c1.614-1.619 2.5-3.75 2.496-6.004-.008-4.601-3.905-8.488-8.51-8.488h-.022z" filter="url(#a)" transform="translate(20 14)"/>
</svg>
