<svg xmlns="http://www.w3.org/2000/svg" xmlns:xlink="http://www.w3.org/1999/xlink" width="34" height="33" viewBox="0 0 34 33">
	<defs>
		<polygon id="icon-white-linkedin-a" points="0 0 33.674 0 33.674 32.684 0 32.684" />
	</defs>
	<g fill="none" fill-rule="evenodd">
		<path d="M25.3223282,22.9241692 L21.9205846,22.9241692 L21.9205846,17.7558615 C21.9205846,16.5213231 21.8970462,14.9364769 20.1499692,14.9364769 C18.3793538,14.9364769 18.1090974,16.2793231 18.1090974,17.6661692 L18.1090974,22.9250154 L14.7047385,22.9250154 L14.7047385,12.2939385 L17.9704821,12.2939385 L17.9704821,13.7476308 L18.0184308,13.7476308 C18.4726359,12.9107846 19.5833026,12.0299385 21.238841,12.0299385 C24.6867897,12.0299385 25.3223282,14.2316308 25.3223282,17.0941692 L25.3223282,22.9241692 Z M10.8679692,10.8419385 C9.77735385,10.8419385 8.89335385,9.98309231 8.89335385,8.92455385 C8.89335385,7.86601538 9.77735385,7.00801538 10.8679692,7.00801538 C11.9585846,7.03509231 12.8199179,7.91509231 12.7928923,8.97363077 C12.7658667,9.99493846 11.9193538,10.8148615 10.8679692,10.8419385 L10.8679692,10.8419385 Z M9.16448205,22.9250154 L12.568841,22.9250154 L12.568841,12.2939385 L9.16448205,12.2939385 L9.16448205,22.9250154 Z M16.8284308,0.000169230769 L16.8136103,0.000169230769 C7.51417436,0.0128615385 -0.013774359,7.33886154 0.000174358974,16.3647846 C0.0132512821,25.3898615 7.56212308,32.6964 16.8606872,32.6837077 C26.1496615,32.6710154 33.6741231,25.3585538 33.6741231,16.3419385 C33.6715077,7.31432308 26.1296103,-0.00236923077 16.8284308,0.000169230769 L16.8284308,0.000169230769 Z" mask="url(#icon-white-linkedin-b)" />
	</g>
</svg>
