<svg xmlns="http://www.w3.org/2000/svg" xmlns:xlink="http://www.w3.org/1999/xlink" width="34" height="33" viewBox="0 0 34 33">
  <defs>
    <polygon points=".001 0 33.674 0 33.674 32.683 .001 32.683"/>
  </defs>
  <g fill="currentColor" fill-rule="evenodd">
    <path d="M24.6848718,21.9412769 C24.6857436,22.0902 24.7737949,22.2729692 24.8827692,22.3821231 C25.3186667,22.8170462 25.7789744,23.2291231 26.2288205,23.6513538 C26.2671795,23.6868923 26.3003077,23.7283538 26.3552308,23.7909692 L19.035641,23.7909692 C19.1010256,23.7215846 19.1454872,23.6708154 19.1960513,23.6242769 C19.6241026,23.2282769 20.0512821,22.8322769 20.4836923,22.4413538 C20.6475897,22.2924308 20.7147179,22.1232 20.7147179,21.9032 C20.710359,18.8460462 20.7121026,15.7880462 20.7147179,12.7300462 C20.7147179,12.5286615 20.7382564,12.3272769 20.7530769,12.0658154 C20.706,12.1555077 20.6798462,12.1935846 20.6632821,12.2367385 C19.078359,16.0926615 17.4951795,19.9485846 15.912,23.8045077 C15.8902051,23.8595077 15.8832308,23.9195846 15.8701538,23.9771231 L15.7864615,23.9771231 C14.2773846,20.7118154 12.7691795,17.4465077 11.2618462,14.1803538 C11.0151282,13.6472769 10.7692821,13.1133538 10.4772308,12.5819692 C10.4737436,12.6564308 10.4667692,12.7308923 10.4667692,12.8053538 C10.4667692,15.0400462 10.4641538,17.2738923 10.4685128,19.5077385 C10.4693846,19.8707385 10.4624103,20.2396615 10.5338974,20.5916615 C10.5862051,20.8522769 10.7248205,21.1128923 10.8869744,21.3312 C11.4553846,22.0986615 12.0508205,22.8458154 12.6357949,23.6005846 C12.6758974,23.6522 12.7133846,23.7063538 12.7735385,23.7884308 L7.30825641,23.7884308 C7.3614359,23.7148154 7.40328205,23.6513538 7.44948718,23.5904308 C8.01702564,22.8559692 8.57410256,22.1147385 9.15646154,21.3912769 C9.49471795,20.9698923 9.62635897,20.4977385 9.62548718,19.9790462 C9.62287179,18.2444308 9.61589744,16.5089692 9.61241026,14.7743538 C9.61066667,13.7149692 9.61066667,12.6547385 9.61502564,11.5953538 C9.61676923,11.2069692 9.48687179,10.8702 9.24625641,10.5655846 C8.81384615,10.0198154 8.38492308,9.47150769 7.956,8.92404615 C7.90979487,8.86650769 7.86707692,8.80643077 7.80517949,8.72266154 C7.89584615,8.71758462 7.96035897,8.70996923 8.02574359,8.70996923 C9.62548718,8.70996923 11.2252308,8.71250769 12.8249744,8.70573846 C12.9818974,8.70489231 13.0525128,8.75566154 13.1152821,8.89104615 C14.5014359,11.8703538 15.8928205,14.8471231 17.2842051,17.8247385 C17.3147179,17.8907385 17.3487179,17.9567385 17.3975385,18.0557385 C17.5239487,17.7502769 17.6372821,17.4769692 17.7506154,17.2028154 C18.8891795,14.4367385 20.0277436,11.6706615 21.1602051,8.90204615 C21.2221026,8.74973846 21.2962051,8.70489231 21.4609744,8.70573846 C23.0110256,8.71250769 24.5619487,8.70996923 26.1137436,8.70996923 L26.3656923,8.70996923 C26.2933333,8.79543077 26.2497436,8.84958462 26.2017949,8.90204615 C25.7432308,9.40043077 25.2768205,9.89204615 24.8304615,10.3997385 C24.7397949,10.5021231 24.6831282,10.6679692 24.6822564,10.8042 C24.6744103,14.5171231 24.6735385,18.2283538 24.6848718,21.9412769 M16.8282564,-0.000338461538 L16.8134359,-0.000338461538 C7.51487179,0.0123538462 -0.0130769231,7.3392 0.000871794872,16.3642769 C0.0130769231,25.3893538 7.56107692,32.6958923 16.8605128,32.6832 C26.150359,32.6713538 33.6739487,25.3580462 33.6739487,16.3422769 C33.6722051,7.31381538 26.1294359,-0.00287692308 16.8282564,-0.000338461538" mask="url(#icon-medium-b)"/>
  </g>
</svg>
