<?xml version="1.0" encoding="utf-8"?>
<!-- Generator: Adobe Illustrator 22.0.1, SVG Export Plug-In . SVG Version: 6.00 Build 0)  -->
<svg version="1.1" id="Layer_1" xmlns="http://www.w3.org/2000/svg" xmlns:xlink="http://www.w3.org/1999/xlink" x="0px" y="0px"
	viewBox="0 0 34 33" style="enable-background:new 0 0 34 33;" xml:space="preserve">
	<g transform="translate(1370 13681)">
		<path d="M-1353.1-13667.7c-1.8,0-3.3,1.4-3.3,3.2c0,1.8,1.5,3.2,3.3,3.2s3.3-1.4,3.3-3.2c0-0.8-0.3-1.7-1-2.3
			C-1351.4-13667.4-1352.2-13667.7-1353.1-13667.7z"/>
		<path d="M-1345.4-13670.2c-0.2-0.4-0.4-0.8-0.7-1.1c-0.3-0.3-0.7-0.6-1.1-0.7c-0.6-0.2-1.2-0.3-1.8-0.3c-1,0-1.3,0-4,0
			s-2.9,0-4,0c-0.6,0-1.2,0.1-1.8,0.3c-0.4,0.1-0.8,0.4-1.1,0.7c-0.3,0.3-0.6,0.7-0.7,1.1c-0.2,0.6-0.3,1.2-0.3,1.8c0,1,0,1.3,0,3.9
			c0,2.6,0,2.9,0,3.9c0,0.6,0.1,1.2,0.3,1.8c0.2,0.4,0.4,0.8,0.7,1.1c0.3,0.3,0.7,0.6,1.1,0.7c0.6,0.2,1.2,0.3,1.8,0.3c1,0,1.3,0,4,0
			s2.9,0,4,0c0.6,0,1.2-0.1,1.8-0.3c0.4-0.1,0.8-0.4,1.1-0.7c0.3-0.3,0.6-0.7,0.7-1.1c0.2-0.6,0.3-1.2,0.3-1.8c0-1,0-1.3,0-3.9
			c0-2.6,0-2.9,0-3.9C-1345.1-13669-1345.2-13669.6-1345.4-13670.2z M-1353.1-13659.6c-2.8,0-5-2.2-5-4.9c0-2.7,2.3-4.9,5.1-4.9
			c2.8,0,5.1,2.2,5.1,4.9c0,1.3-0.5,2.6-1.5,3.5C-1350.5-13660.1-1351.7-13659.6-1353.1-13659.6L-1353.1-13659.6z M-1347.8-13668.5
			c-0.6,0-1.2-0.5-1.2-1.1s0.5-1.1,1.2-1.1s1.2,0.5,1.2,1.1c0,0.3-0.1,0.6-0.3,0.8C-1347.2-13668.6-1347.5-13668.5-1347.8-13668.5
			L-1347.8-13668.5z"/>
		<path d="M-1353-13680.4c-9.1,0-16.4,7.2-16.4,15.9c0,8.8,7.4,15.9,16.4,15.9c9.1,0,16.4-7.1,16.4-15.9
			c0-4.2-1.7-8.3-4.8-11.3S-1348.6-13680.4-1353-13680.4z M-1343.3-13660.6c0,0.8-0.2,1.6-0.5,2.3c-0.2,0.6-0.6,1.2-1.1,1.7
			c-0.5,0.5-1.1,0.9-1.7,1.1c-0.8,0.3-1.6,0.4-2.4,0.5c-1,0-1.4,0-4.1,0s-3,0-4.1,0c-0.8,0-1.6-0.2-2.4-0.5c-0.6-0.2-1.2-0.6-1.7-1.1
			c-0.5-0.5-0.9-1-1.1-1.7c-0.3-0.7-0.4-1.5-0.5-2.3c0-1,0-1.3,0-3.9s0-2.9,0-3.9c0-0.8,0.2-1.6,0.5-2.3c0.2-0.6,0.6-1.2,1.1-1.7
			c0.5-0.5,1.1-0.9,1.7-1.1c0.8-0.3,1.6-0.4,2.4-0.5c1,0,1.4,0,4.1,0s3,0,4.1,0c0.8,0,1.6,0.2,2.4,0.5c0.6,0.2,1.2,0.6,1.7,1.1
			c0.5,0.5,0.9,1,1.1,1.7c0.3,0.7,0.5,1.5,0.5,2.3c0,1,0,1.3,0,3.9S-1343.2-13661.6-1343.3-13660.6z"/>
	</g>
</svg>
