<?xml version="1.0" encoding="utf-8"?>
<!-- Generator: Adobe Illustrator 22.0.1, SVG Export Plug-In . SVG Version: 6.00 Build 0)  -->
<svg version="1.1" id="Layer_1" xmlns="http://www.w3.org/2000/svg" xmlns:xlink="http://www.w3.org/1999/xlink" x="0px" y="0px"
	 viewBox="0 0 24 24" style="enable-background:new 0 0 24 24;" xml:space="preserve">
<style type="text/css">
	.st0{filter:url(#Adobe_OpacityMaskFilter);}
	.st1{fill:#FFFFFF;}
	.st2{mask:url(#linkedin-b_2_);fill:#645FE4;}
	.st3{fill:#FEFEFE;}
</style>
<g transform="translate(329 211)">
	<defs>
		<filter id="Adobe_OpacityMaskFilter" filterUnits="userSpaceOnUse" x="-329" y="-211" width="24" height="24">
			<feColorMatrix  type="matrix" values="1 0 0 0 0  0 1 0 0 0  0 0 1 0 0  0 0 0 1 0"/>
		</filter>
	</defs>
	<mask maskUnits="userSpaceOnUse" x="-329" y="-211" width="24" height="24" id="linkedin-b_2_">
		<g class="st0">
			<polygon id="linkedin-a_2_" class="st1" points="-329,-211 -305,-211 -305,-187 -329,-187"/>
		</g>
	</mask>
	<path class="st2" d="M-306.8-211h-20.5c-1,0-1.8,0.8-1.8,1.7v20.5c0,1,0.8,1.7,1.8,1.7h20.5c1,0,1.8-0.8,1.8-1.7v-20.5
		C-305-210.2-305.8-211-306.8-211"/>
	<path class="st3" d="M-319.7-202h3.4v1.6h0c0.5-0.9,1.6-1.9,3.4-1.9c3.6,0,4.3,2.4,4.3,5.5v6.3h-3.6v-5.6c0-1.3,0-3-1.9-3
		c-1.9,0-2.1,1.4-2.1,2.9v5.7h-3.6V-202z M-325.4-190.5h3.6V-202h-3.6V-190.5z M-323.7-207.7c1.1,0,2,1,2,2.1c0,1.1-0.9,2-2,2
		c-1.1,0-2.1-0.9-2.1-2.1C-325.7-206.8-324.8-207.7-323.7-207.7z"/>
</g>
</svg>
