<svg xmlns="http://www.w3.org/2000/svg" width="185" height="40" viewBox="0 0 185 40">
    <g fill="#FFF" fill-rule="evenodd">
        <path d="M79.845 26.587c0 .69-.564 1.254-1.253 1.254H68.409c-.69 0-1.254-.565-1.254-1.254V14.413c0-.69.564-1.254 1.254-1.254h10.183c.689 0 1.253.564 1.253 1.254v12.174zM79.985 8h-12.97C64.256 8 62 10.258 62 13.018v14.964C62 30.742 64.257 33 67.014 33h12.972C82.743 33 85 30.742 85 27.982V13.018C85 10.258 82.743 8 79.986 8zM151.831 26.595c0 .69-.564 1.255-1.254 1.255h-10.154c-.69 0-1.254-.565-1.254-1.255V8H134v19.982c0 2.76 2.257 5.018 5.015 5.018h12.97c2.758 0 5.015-2.258 5.015-5.018V8h-5.169v18.595zM118.696 8H114.01C111.255 8 109 10.258 109 13.018v5.032c0 2.76 2.255 5.017 5.01 5.017h1.67l.01.015h7.894c.689 0 1.253.565 1.253 1.255v2.258c0 .69-.564 1.255-1.253 1.255h-9.574c-2.755 0-5.01 2.258-5.01 5.018V33h15.989c2.756 0 5.011-2.258 5.011-5.018V22.95c0-2.76-2.255-5.018-5.01-5.018h-1.67l-.01-.014h-7.894c-.69 0-1.253-.565-1.253-1.255v-2.258c0-.69.563-1.255 1.253-1.255h9.573c2.756 0 5.011-2.258 5.011-5.018V8h-11.304zM168.415 13.15H177.99c2.757 0 5.011-2.258 5.011-5.018V8h-15.99c-2.755 0-5.01 2.258-5.01 5.018v5.032c0 2.76 2.255 5.018 5.01 5.018h1.67l.01.014h7.895c.688 0 1.253.565 1.253 1.256v2.257c0 .69-.565 1.255-1.253 1.255h-9.575c-2.755 0-5.01 2.258-5.01 5.018V33h15.989c2.757 0 5.011-2.258 5.011-5.018V22.95c0-2.76-2.254-5.017-5.01-5.017h-1.67l-.01-.015h-7.895c-.69 0-1.252-.565-1.252-1.255v-2.258c0-.69.563-1.255 1.252-1.255M95.143 8C92.315 8 90 10.258 90 13.018V33h5.287V14.331c0-.69.578-1.254 1.285-1.254h.597l.012-.008h2.676c2.83 0 5.143-2.259 5.143-5.018V8h-9.857zM47.944 21.216l-1.115 1.123.043.006-9.496 9.528a4.267 4.267 0 0 1-3.03 1.254 4.262 4.262 0 0 1-3.03-1.254l-.995-.997 2.242-2.272-.005-.005 5.04-5.08c1.663-1.675 1.656-4.412-.014-6.08l-.996-.995-6.826 6.848-1.252 1.263-4.032 4.063-2.744 2.766-.53.533a1.069 1.069 0 0 1-1.515.004L9.059 21.305a1.077 1.077 0 0 1-.003-1.52l1.808-1.824-.03-.007 8.4-8.43.403-.404.01-.009.13-.13a4.26 4.26 0 0 1 3.03-1.254c1.098 0 2.197.418 3.03 1.255l.995.997-2.391 2.422-5.039 5.08c-1.663 1.675-1.657 4.412.013 6.08l1.014 1.013 3.276-3.303 1.502-1.514c.003-.002.005-.006.008-.01l3.275-3.302.002.002 1.537-1.55 2.493-2.513h-.001l3.275-3.301a1.068 1.068 0 0 1 1.516-.003L47.94 19.695c.419.42.42 1.1.003 1.52zM39.57 3.247A4.267 4.267 0 0 0 36.537 2l-16.159.037a4.265 4.265 0 0 0-3.027 1.26L3.244 17.518a4.322 4.322 0 0 0 .013 6.081l14.172 14.155A4.266 4.266 0 0 0 20.463 39l16.158-.037a4.26 4.26 0 0 0 3.028-1.26l14.108-14.22a4.322 4.322 0 0 0-.013-6.08L39.57 3.247z"/>
    </g>
</svg>
