<svg width="66" height="95" xmlns="http://www.w3.org/2000/svg"><g fill="none" fill-rule="evenodd"><path d="M0 0h66v95H0z"/><path d="M33.115 74.054L19.202 60.26c-2.97-2.95-2.993-7.754-.042-10.727l9.881 9.785c2.216 2.202 5.833 2.186 8.03-.035l1.336-1.349-5.381-5.341-16.133-16.034 15.998-16.158 13.795 13.633a7.588 7.588 0 0 1 .045 10.728l-5.379-5.341-4.38-4.281c-2.217-2.208-5.833-2.195-8.033.035l-1.334 1.343 10.757 10.689 5.376 5.341 1.058 1.054 4.317 4.287-15.998 16.165zm32.763-41.237a7.3 7.3 0 0 0-.374-2.291l.035-.02a7.58 7.58 0 0 0-1.867-3.05L38.27 2.217A7.513 7.513 0 0 0 34.273.135 7.743 7.743 0 0 0 32.84 0a7.816 7.816 0 0 0-1.47.147 7.533 7.533 0 0 0-3.982 2.115L2.2 27.712A7.648 7.648 0 0 0 0 33.09l.118 29.02.004.01c.006 1.97.748 3.928 2.244 5.415l25.396 25.239a7.555 7.555 0 0 0 4 2.095 7.73 7.73 0 0 0 2.903-.013 7.55 7.55 0 0 0 3.979-2.124l25.191-25.453a7.564 7.564 0 0 0 1.692-2.612l-.039-.02c.07-.182.128-.364.186-.553l.038-.119c.029-.1.045-.199.07-.301.144-.6.221-1.215.218-1.826v-.01l-.122-29.02z" fill="#645FE4"/></g></svg>