<svg width="157" height="754" xmlns="http://www.w3.org/2000/svg"><path d="M40.018 111.724h75.964c4.308 0 7.828-3.53 7.828-7.845V40.126c0-4.32-3.52-7.85-7.828-7.85H40.018c-4.303 0-7.828 3.53-7.828 7.85v63.753c0 4.315 3.525 7.845 7.828 7.845zm115.982.882C156 129.87 141.908 144 124.685 144h-93.37C14.092 144 0 129.87 0 112.606V31.394C0 14.13 14.092 0 31.315 0h93.37C141.908 0 156 14.13 156 31.394v81.212zM39.967 560.639H156V593H31.315C14.092 593 0 578.871 0 561.598v-81.201C0 463.129 14.092 449 31.315 449H156v32.361H39.967c-4.303 0-7.829 3.53-7.829 7.85v63.578c0 4.32 3.526 7.85 7.83 7.85zM156 354.02V424h-.824c-17.223 0-31.314-13.958-31.314-31.019V333.716c0-4.267-3.52-7.755-7.83-7.755h-14.09c-4.304 0-7.83 3.488-7.83 7.755v48.865l-.086.066v10.334c0 17.06-14.092 31.019-31.315 31.019H31.315C14.092 424 0 410.042 0 392.981V294h.824c17.223 0 31.314 13.958 31.314 31.019V384.284c0 4.262 3.52 7.755 7.83 7.755h14.09c4.304 0 7.83-3.493 7.83-7.755v-48.87l.091-.066v-10.33c0-17.06 14.087-31.018 31.31-31.018h31.396C141.908 294 156 307.958 156 325.019V354.02zm-32.138 309.693c0-4.268-3.52-7.75-7.83-7.75h-14.09c-4.304 0-7.83 3.482-7.83 7.75v48.871l-.091.066v10.33c0 17.066-14.087 31.02-31.31 31.02H31.315C14.092 754 0 740.046 0 722.98V624h.824c17.223 0 31.314 13.959 31.314 31.015v59.272c0 4.263 3.52 7.755 7.83 7.755h14.086c4.308 0 7.833-3.492 7.833-7.755v-48.871l.087-.066v-10.335C61.974 637.959 76.066 624 93.29 624h31.396C141.908 624 156 637.959 156 655.015V754h-.824c-17.223 0-31.314-13.954-31.314-31.02v-59.267zM156.5 206.384V267.5h-.317c-17.218 0-31.315-14.345-31.315-31.884V219.02l-.046-.073v-3.7c0-4.382-3.52-7.967-7.829-7.967H.5V174.5h124.685c17.223 0 31.315 14.35 31.315 31.884z" fill="#FFF" fill-rule="evenodd" fill-opacity=".1"/></svg>