<svg xmlns="http://www.w3.org/2000/svg" viewBox="0 0 33 32">
	<path d="M23.8 10.3c-.9 4.3-1.9 8.5-2.8 12.8-.2 1.1-.9 1.4-1.8.7-1.3-.9-2.6-1.9-3.9-2.8-.1-.1-.2-.1-.3-.2-1 .8-1.7 1.9-3 2.5V23c.1-1.3.2-2.6.3-4 0-.1.1-.3.3-.4 2.5-2.2 5-4.4 7.4-6.5.1-.1.3-.2.4-.3.1-.1.1-.2.2-.3h-.5c-.1 0-.3.2-.4.2-3.2 1.9-6.4 3.9-9.5 5.8-.2.1-.4.2-.6.1l-3.9-1.2c-.3-.1-.7-.2-.8-.6 0-.4.4-.6.7-.7 1.7-.6 3.4-1.3 5.1-1.9 4-1.5 7.9-3 11.9-4.5.1 0 .3-.1.4-.1.5-.1 1 .2 1 .7-.1.3-.2.6-.2 1M16.3 0C7.3 0 0 7.1 0 15.9s7.3 15.8 16.4 15.8c9 0 16.3-7.1 16.3-15.8C32.7 7.1 25.4 0 16.3 0" />
</svg>
