<?xml version="1.0" encoding="utf-8"?>
<!-- Generator: Adobe Illustrator 22.0.1, SVG Export Plug-In . SVG Version: 6.00 Build 0)  -->
<svg version="1.1" id="Layer_1" xmlns="http://www.w3.org/2000/svg" xmlns:xlink="http://www.w3.org/1999/xlink" x="0px" y="0px"
	viewBox="0 0 34 33" xml:space="preserve">

	<path d="M16.7,0.6C7.7,0.6,0.3,7.7,0.3,16.5s7.4,15.9,16.4,15.9s16.4-7.1,16.4-15.9c0-4.2-1.7-8.3-4.8-11.3
		S21.1,0.6,16.7,0.6z M26.8,10.5C26.7,10.5,26.7,10.5,26.8,10.5C26.7,10.5,26.7,10.5,26.8,10.5c-0.6,0.8-1.2,1.4-2,2
		c-0.1,0-0.1,0.1-0.1,0.2c0,0.6,0,1.3-0.1,1.9c-0.2,1.2-0.6,2.4-1.1,3.6c-0.7,1.5-1.8,2.7-3,3.8c-1.2,1-2.6,1.7-4.1,2.1
		c-1.3,0.4-2.6,0.5-3.9,0.4c-0.6,0-1.1-0.1-1.6-0.2c-1.3-0.2-2.5-0.7-3.7-1.3c-0.2-0.1-0.3-0.2-0.5-0.2c1.1,0.1,2.2,0,3.2-0.2
		c1-0.3,2-0.8,2.9-1.4c-0.1,0-0.3,0-0.4,0c-0.1,0-0.2,0-0.3,0c-1.4-0.3-2.6-1.3-3.1-2.6c0-0.1,0-0.1,0.1-0.1c0.5,0.1,1.1,0.1,1.6,0
		c0,0,0,0,0,0c0,0,0,0,0,0h0C9.8,18,9,17.5,8.4,16.8c-0.6-0.7-0.9-1.6-1-2.5c0-0.2,0-0.2,0.1-0.1C8,14.5,8.5,14.6,9,14.7h0.3
		c0,0,0,0,0,0c-0.2-0.2-0.4-0.4-0.6-0.5c-0.3-0.3-0.5-0.5-0.6-0.8c-0.4-0.6-0.5-1.4-0.5-2.1c0-0.6,0.2-1.2,0.5-1.8c0-0.1,0-0.1,0.1,0
		c0.5,0.6,1,1.1,1.6,1.6c1.2,1,2.6,1.7,4.1,2.1c0.8,0.2,1.7,0.4,2.6,0.5c0.1,0,0.1,0,0.1-0.1c-0.1-0.5-0.1-1,0-1.5
		c0.3-1.7,1.6-2.9,3.3-3.2c0.1,0,0.3,0,0.4-0.1h0.6c0,0,0.1,0,0.2,0c0.9,0.1,1.8,0.5,2.5,1.2c0,0,0.1,0.1,0.2,0
		c0.9-0.2,1.7-0.5,2.4-0.9c0,0,0,0,0.1,0c-0.3,0.9-0.9,1.7-1.8,2.2c0.6,0,1.1-0.2,1.7-0.4C26.3,10.6,26.5,10.5,26.8,10.5L26.8,10.5z"
		/>
</svg>
