<?xml version="1.0" encoding="utf-8"?>
<!-- Generator: Adobe Illustrator 22.0.1, SVG Export Plug-In . SVG Version: 6.00 Build 0)  -->
<svg version="1.1" id="Layer_1" xmlns="http://www.w3.org/2000/svg" xmlns:xlink="http://www.w3.org/1999/xlink" x="0px" y="0px"
	 viewBox="0 0 43 42" style="enable-background:new 0 0 43 42;" xml:space="preserve">
<style type="text/css">
	.st0{fill:#645FE4;}
	.st1{fill:#000;}
</style>
<g transform="translate(368 6244)">
	<g transform="translate(90 391)">
		<ellipse class="st0" cx="-436.9" cy="-6614" rx="21.1" ry="21"/>
		<path class="st1" d="M-433.6-6626.6c0.4,2.5-1.7,5.1-4,5C-438.2-6623.6-436.1-6626.3-433.6-6626.6z M-428.9-6619.1
			c-3.3,2.2-3.3,6.7,0.6,8.7c-0.7,1.9-1.7,3.7-3.3,5.1c-0.9,0.8-1.9,0.9-3,0.4c-1.7-0.8-3.4-0.8-5.1,0c-1.1,0.5-2.2,0.3-3-0.5
			c-3.1-3.2-4.7-6.9-3.8-11.3c0.5-2.8,3-4.7,5.8-4.5c0.7,0.1,1.3,0.2,1.9,0.5c1,0.5,1.9,0.4,2.9,0c1.5-0.7,3.1-0.8,4.7-0.2
			C-430.3-6620.5-429.5-6620-428.9-6619.1z"/>
	</g>
</g>
</svg>
